<?xml version="1.0" standalone="no"?>
<!DOCTYPE svg PUBLIC "-//W3C//DTD SVG 1.1//EN" "http://www.w3.org/Graphics/SVG/1.1/DTD/svg11.dtd" >
<svg xmlns="http://www.w3.org/2000/svg">
<metadata></metadata>
<defs>
<font id="ChevinCyrillicLightItalic" horiz-adv-x="1146" >
<font-face units-per-em="2048" ascent="1556" descent="-492" />
<missing-glyph horiz-adv-x="528" />
<glyph unicode="&#xfb01;" horiz-adv-x="1015" d="M825 1434q0 -29 -19.5 -48.5t-51.5 -19.5h-90q-167 0 -201 -192l-29 -156h172q25 0 41.5 -14.5t16.5 -40t-19.5 -44t-50.5 -18.5h-184l-164 -852q-4 -29 -23.5 -45t-44.5 -16t-42 15t-17 33q0 26 4 46l158 819h-62q-27 0 -43 15.5t-16 41t19.5 43t49.5 17.5h74l35 180 q58 289 321 289h107q59 0 59 -53zM1085 1374q0 -35 -23.5 -57.5t-57.5 -22.5q-35 0 -57.5 22.5t-22.5 57.5t22.5 58.5t57.5 23.5t58 -23.5t23 -58.5zM991 973l-176 -924q-6 -29 -25.5 -45t-43.5 -16t-42 15t-18 34.5t2 25.5l174 908q6 29 25.5 45t43.5 16t42 -15t18 -44z " />
<glyph unicode="&#xfb02;" horiz-adv-x="1021" d="M825 1434q0 -29 -19.5 -48.5t-51.5 -19.5h-90q-167 0 -201 -192l-29 -156h172q25 0 41.5 -14.5t16.5 -40t-19.5 -44t-50.5 -18.5h-184l-164 -852q-4 -29 -23.5 -45t-44.5 -16t-42 15t-17 33q0 26 4 46l158 819h-62q-27 0 -43 15.5t-16 41t19.5 43t49.5 17.5h74l35 180 q58 289 321 289h107q59 0 59 -53zM909 47q0 -59 -75 -59q-45 0 -83 36.5t-38 91.5q0 65 14 156l223 1149q4 29 23.5 45.5t43.5 16.5t42 -14.5t18 -39t-6 -43.5l-223 -1155q-6 -48 -6 -70q0 -42 35 -65q32 -24 32 -49z" />
<glyph horiz-adv-x="0" />
<glyph horiz-adv-x="2048" />
<glyph unicode="&#xd;" horiz-adv-x="528" />
<glyph unicode=" "  horiz-adv-x="528" />
<glyph unicode="&#x09;" horiz-adv-x="528" />
<glyph unicode="&#xa0;" horiz-adv-x="528" />
<glyph unicode="!" horiz-adv-x="536" d="M362 457q-16 -66 -69 -66q-58 0 -45 74l172 967q6 33 26.5 57t59.5 24t52 -26.5t7 -61.5zM332 78q0 -41 -30 -69.5t-71 -28.5t-69.5 28.5t-28.5 69.5t28.5 69.5t69.5 28.5t71 -28.5t30 -69.5z" />
<glyph unicode="&#x22;" horiz-adv-x="655" d="M702 1165q-16 -61 -63 -61q-56 0 -47 72l37 258q4 29 23.5 54t57.5 25t51 -27.5t5 -58.5zM385 1165q-16 -61 -63 -61q-55 0 -46 72l37 258q4 29 23.5 54t57.5 25t51.5 -27.5t3.5 -58.5z" />
<glyph unicode="#" horiz-adv-x="1497" d="M942 45q-23 -63 -80 -63t-57 51q0 20 6 33l109 327h-396l-116 -348q-23 -63 -82 -63q-23 0 -39.5 13t-16.5 37t9 40l106 321h-229q-29 0 -46.5 16.5t-17.5 43.5t21.5 46t54.5 19h258l152 451h-226q-29 0 -46 16t-17 43t20.5 46.5t52.5 19.5h256l119 352q20 67 80 67 q23 0 39 -14t16 -38t-4 -29l-110 -338h395l119 352q20 67 80 67q23 0 39 -14t16 -31q0 -35 -8 -51l-107 -323h228q29 0 45 -16.5t16 -43.5t-20.5 -46t-53.5 -19h-258l-149 -451h225q27 0 44 -15.5t17 -42t-20 -47t-53 -20.5h-254zM715 969l-150 -451h396l151 451h-397z" />
<glyph unicode="$" d="M774 1720q53 0 53 -51q0 -10 -2 -14l-26 -142q137 -8 245 -57q41 -18 41 -51t-17 -54.5t-41.5 -20.5t-54.5 16q-90 43 -201 43t-183 -20.5t-124 -57.5q-108 -77 -108 -201q0 -167 195 -250q55 -24 116.5 -49t125 -54.5t114.5 -72.5q113 -95 113 -268q0 -194 -144 -308 q-135 -107 -370 -124l-31 -158q-4 -27 -21.5 -40t-37.5 -13q-54 0 -54 51v14l29 144q-160 7 -291 67q-41 18 -41 52.5t17.5 54.5t38 20t37.5 -6q135 -64 266 -64t215 24t140 64q112 78 112 216q0 134 -119 210q-53 33 -118.5 57.5t-128 50.5t-116 54.5t-94.5 71.5 q-90 94 -90 248q0 179 137 290q126 102 328 119l31 156q8 53 59 53z" />
<glyph unicode="%" horiz-adv-x="1140" d="M711 1139q-23 -100 -63 -139q-76 -74 -185 -74q-113 0 -157 93q-38 83 -11 193l18 88q28 148 151 196q44 17 104 17t97 -23.5t57 -61.5q36 -73 13 -179zM297 8q-10 -18 -30.5 -23t-38 5t-23.5 30.5t4 36.5l811 1430q10 18 30.5 23.5t37.5 -5t23.5 -30t-3.5 -37.5z M1004 197q-50 -213 -248 -213q-115 0 -157 93q-38 83 -13 193l20 88q27 146 151 194q44 17 104 17t97 -23.5t56 -61.5q37 -72 14 -177zM643 1268q16 68 -6.5 110.5t-88.5 42.5q-111 0 -140 -139l-21 -88q-18 -86 6.5 -132t88 -46t93 42t41.5 101zM934 324q16 70 -5.5 112.5 t-86.5 42.5q-110 0 -142 -141l-20 -88q-18 -84 6.5 -130t88 -46t92 41t42.5 100z" />
<glyph unicode="&#x26;" horiz-adv-x="1263" d="M930 141q-180 -159 -426 -159q-191 0 -297 113q-96 102 -96 272q0 162 129 299q83 86 264 190q-96 157 -110 248q-5 33 -5 89.5t31 118.5t81 107q104 94 244 94q142 0 232 -67q23 -18 49.5 -52t27.5 -61t-17.5 -45t-38.5 -18q-41 0 -56 24q-63 95 -199 95q-84 0 -152 -59 q-71 -61 -71 -150q0 -74 32 -139.5t64 -118.5l336 -562q100 141 138 342q8 52 59 52q29 0 47 -17.5t18 -46.5v-14q-48 -257 -190 -438l94 -158q12 -18 12 -41t-20 -41t-40 -18q-44 0 -62 32zM563 756q-147 -82 -209.5 -147.5t-88 -119t-25.5 -114.5q0 -115 64.5 -192 t187.5 -77q224 0 372 146z" />
<glyph unicode="'" horiz-adv-x="350" d="M397 1163q-17 -61 -69 -61q-54 0 -45 61l36 269q4 29 26 54t63 25t53 -25.5t2 -53.5z" />
<glyph unicode="(" horiz-adv-x="559" d="M676 1662q16 -17 16 -44t-22 -53q-394 -410 -394 -992q0 -330 123 -686q18 -48 -8 -70t-47 -22q-47 0 -63 43q-138 364 -138 708q0 663 432 1111q25 23 55 22.5t46 -17.5z" />
<glyph unicode=")" horiz-adv-x="559" d="M532 903q0 -635 -432 -1083q-25 -25 -53 -25q-29 0 -45 18.5t-16 47.5t22 51q391 403 391 991q0 352 -123 684q-4 20 -4 40t20.5 36t41.5 16q45 0 63 -41q135 -369 135 -735z" />
<glyph unicode="*" horiz-adv-x="978" d="M1015.5 1270q25.5 -8 35.5 -40t-6.5 -53.5t-40.5 -27.5l-261 -70l168 -211q43 -54 -10 -92q-55 -38 -90 19l-147 225l-150 -225q-12 -23 -36.5 -31t-53.5 12t-28 46t18 46l168 211l-260 70q-25 6 -40.5 27.5t-5.5 53.5t35 40t49 -2l252 -94l-12 268q-2 27 13.5 48 t50.5 21t50 -21.5t11 -47.5l-12 -268l254 94q23 10 48.5 2z" />
<glyph unicode="+" horiz-adv-x="1091" d="M991.5 605.5q16.5 -15.5 16.5 -42.5t-19.5 -46t-54.5 -19h-285l-59 -301q-13 -62 -68 -62q-25 0 -42 15.5t-17 38t4 38.5l51 271h-276q-27 0 -44.5 16t-17.5 43t20.5 45.5t55.5 18.5h287l55 301q6 29 25.5 45t43.5 16t42 -15.5t18 -32.5q0 -36 -4 -44l-51 -270h274 q29 0 45.5 -15.5z" />
<glyph unicode="," horiz-adv-x="448" d="M264 53q-7 -94 -80 -163q-30 -27 -59 -41.5t-43 -12.5q-33 4 -33 37q3 18 27 36q47 34 57 83q-31 10 -50.5 37.5t-15 65.5t35 63.5t73.5 21.5t67.5 -39t20.5 -88z" />
<glyph unicode="-" horiz-adv-x="964" d="M803 664q29 0 46 -19t17 -43.5t-20.5 -43.5t-54.5 -19h-521q-29 0 -47 18q-16 16 -16 42t20.5 45.5t55.5 19.5h520z" />
<glyph unicode="." horiz-adv-x="458" d="M276 82q0 -41 -29.5 -69.5t-70.5 -28.5t-69.5 28.5t-28.5 69.5t28.5 69.5t69.5 28.5t70.5 -28.5t29.5 -69.5z" />
<glyph unicode="/" horiz-adv-x="579" d="M18 -119q-10 -25 -34.5 -34t-49.5 1t-34 36t4 50l774 1676q10 25 35.5 34t49.5 -2.5t33 -36t-1 -49.5z" />
<glyph unicode="0" d="M1153 1067q0 -94 -20 -188l-56 -283q-58 -285 -157 -421q-141 -193 -404 -193q-190 0 -283 128q-81 113 -81 310q0 85 24 217l49 244q59 291 157 430q143 202 409 202q187 0 280 -131q82 -116 82 -315zM1020 1081q0 137 -57.5 220t-171 83t-185 -40.5t-120.5 -113.5 q-76 -115 -130 -376l-47 -238q-22 -121 -22 -204q0 -139 57 -221t169.5 -82t184.5 38.5t119 108.5q79 117 129 367l55 282q19 92 19 176z" />
<glyph unicode="1" d="M923 112q17 -17 17 -44t-21.5 -47.5t-56.5 -20.5h-692q-29 0 -46.5 16.5t-17.5 44t20.5 48t55.5 20.5h355l227 1184l-414 -266q-60 -37 -92 -1q-16 19 -16 53t41 56l516 330q40 28 67 28q57 0 58 -59q0 -29 -4 -45l-248 -1280h205q29 0 46 -17z" />
<glyph unicode="2" d="M1118 1124q0 -224 -262 -428q-74 -57 -154.5 -114t-149.5 -110.5t-122 -107.5q-113 -113 -145 -235h610q31 0 47 -17.5t16 -44t-20 -47t-55 -20.5h-684q-35 0 -50.5 16.5t-15.5 38.5q0 70 45 175q66 156 280 318q60 46 120 90q165 120 244 193.5t121 142t42 146.5 q0 131 -69.5 198.5t-186.5 67.5q-143 0 -281 -94q-24 -16 -51 -16t-42 17.5t-15 47t29 52.5q165 120 370 120q171 0 274 -103q105 -105 105 -286z" />
<glyph unicode="3" d="M797 760q204 -86 204 -330q0 -185 -131 -312q-140 -136 -376 -136q-86 0 -159 14t-122 48q-104 72 -104 116q0 27 17 45t43 18t45 -20.5t65 -48.5q77 -48 194 -48t185.5 28t114.5 74q93 93 93 226q0 150 -110 216q-86 52 -234 52h-12q-33 0 -48.5 19.5t-15.5 44.5 t18.5 43t47.5 18h80q124 0 227 77q119 89 119 229q0 167 -144 233q-51 23 -124 23q-157 0 -260 -91q-25 -14 -46.5 -14t-40 20.5t-18.5 39.5q0 35 25 53q82 70 170 93t184 23t170 -32.5t122 -86.5q93 -103 93 -251q0 -140 -85 -247q-72 -91 -187 -136z" />
<glyph unicode="4" d="M975 434q63 0 63 -55q0 -31 -21.5 -50.5t-55.5 -19.5h-132l-51 -266q-12 -61 -69 -61q-25 0 -42.5 15t-17.5 36.5t4 42.5l45 233h-514q-67 0 -67 60q0 28 26 67l660 1041q20 37 55 36.5t52.5 -18.5t17.5 -39q0 -26 -27 -72l-604 -950h426l61 330q6 29 25.5 45t44.5 16 t43 -15t18 -34t-6 -49l-55 -293h121z" />
<glyph unicode="5" d="M885 522q0 260 -238 260q-106 0 -191 -64q-32 -24 -55.5 -43.5t-50.5 -19.5t-43 15.5t-16 38t4 39.5l154 682q6 31 27.5 48t45.5 17h527q29 0 46 -16t17 -45t-20.5 -48.5t-55.5 -19.5h-473l-117 -526q90 65 235 65t241 -90t96 -289q0 -208 -136 -367q-151 -177 -413 -177 q-192 0 -297 81q-33 25 -33 58t19.5 50t38 17t27.5 -5t20 -9q103 -68 217 -68t192 36t129 94q103 117 103 286z" />
<glyph unicode="6" d="M1026 446q-6 -108 -46 -197t-106 -149q-140 -130 -344 -116q-181 8 -284 148q-109 148 -96 392q15 278 226 551q171 222 449 410q20 14 48 13t47.5 -18.5t17.5 -38.5q-4 -41 -31 -61q-263 -174 -429 -390q-60 -79 -99 -165q144 89 287 78q169 -8 268 -125 q104 -121 92 -332zM860 304q29 65 33 148t-14.5 142t-52.5 100q-66 77 -168 84q-180 11 -347 -110q-50 -184 -13 -330q36 -146 140 -200q106 -55 237 -10q127 45 185 176z" />
<glyph unicode="7" d="M352 -18q-63 0 -63 59q0 23 12 41l752 1284h-670q-48 0 -61 36q-3 11 -3 30.5t20.5 41t55.5 21.5h779q23 0 40 -14t17 -35q0 -39 -19 -62l-794 -1364q-20 -39 -66 -38z" />
<glyph unicode="8" d="M1088 1316q30 -67 30 -156t-38 -150.5t-91 -104.5t-109.5 -71.5t-93.5 -49.5q33 -20 81 -48.5t93 -73.5q107 -107 107 -263q0 -181 -139 -297q-143 -120 -383 -120q-193 0 -313 106q-115 101 -115 264q0 175 161 298q66 50 136.5 82t115.5 56q-31 20 -70.5 47t-76.5 69 q-88 100 -88 241q0 159 127 262q131 106 315 106q262 0 351 -197zM916.5 1331.5q-70.5 59.5 -183.5 59.5q-135 0 -224 -78q-85 -74 -85 -174q0 -148 168 -246q43 -25 78 -43q137 58 190 96q127 89 127 207.5t-70.5 178zM910.5 287.5q23.5 54.5 23.5 118t-27.5 112.5 t-69.5 86t-93.5 64.5t-96.5 52.5q-63 -27 -133 -58.5t-128 -73.5q-134 -97 -134 -229q0 -106 77 -179q81 -77 198.5 -77t190.5 24t121 64.5t71.5 95z" />
<glyph unicode="9" d="M1168 964q-5 -139 -64.5 -279t-152.5 -265q-173 -233 -441 -416q-25 -16 -52.5 -15t-45 18.5t-17.5 45.5q0 29 33 56q176 123 268 219q181 188 254 346q-151 -97 -293 -86q-260 6 -345 258q-27 82 -23 191.5t43 198.5t104 152q131 127 340 123q185 -8 289 -144 q112 -146 103 -403zM1010 829q20 74 23 164t-16.5 166t-56.5 125q-71 96 -192 100q-142 4 -239 -89q-101 -97 -105 -261q-8 -156 70 -242q69 -77 188 -81q165 -8 328 118z" />
<glyph unicode=":" horiz-adv-x="458" d="M399 731q0 -41 -28.5 -69.5t-69.5 -28.5t-69.5 28.5t-28.5 69.5t28.5 69.5t69.5 28.5t69.5 -28.5t28.5 -69.5zM276 82q0 -41 -29.5 -69.5t-70.5 -28.5t-69.5 28.5t-28.5 69.5t28.5 69.5t69.5 28.5t70.5 -28.5t29.5 -69.5z" />
<glyph unicode=";" horiz-adv-x="450" d="M391 731q0 -41 -28.5 -69.5t-69.5 -28.5t-70.5 28.5t-29.5 69.5t29.5 69.5t70.5 28.5t69.5 -28.5t28.5 -69.5zM266 53q-7 -93 -80 -163q-28 -27 -57 -41.5t-44 -12.5t-25 12q-21 24 6 48q10 10 23 20q35 27 48 76q-33 10 -52 37.5t-15 65.5t35.5 63.5t74.5 21.5t66.5 -39 t19.5 -88z" />
<glyph unicode="&#x3c;" horiz-adv-x="1097" d="M1083 977q10 -23 1 -45.5t-37 -34.5l-709 -340l567 -336q20 -12 31.5 -34.5t-4.5 -47.5q-28 -44 -86 -12l-641 381q-41 26 -34 61t44 52l782 378q29 14 52.5 7.5t33.5 -29.5z" />
<glyph unicode="=" horiz-adv-x="1097" d="M1031 805q38 -12 38 -63q0 -19 -20.5 -39.5t-55.5 -20.5h-676q-25 0 -47 20q-14 14 -14 40t20.5 46.5t53.5 20.5h678q10 0 23 -4zM985 424q14 -21 14 -44.5t-20.5 -43t-54.5 -19.5h-676q-30 0 -49 19q-15 15 -15 40.5t20.5 45.5t53.5 20h678q31 0 49 -18z" />
<glyph unicode="&#x3e;" horiz-adv-x="1097" d="M1047 616q40 -25 31 -60.5t-44 -51.5l-782 -377q-29 -14 -52.5 -8t-33.5 28q-22 51 39 80l706 342l-567 336q-20 10 -31.5 34t4.5 48q28 44 86 12z" />
<glyph unicode="?" horiz-adv-x="997" d="M1003.5 1314.5q28.5 -65.5 28.5 -145.5t-22.5 -137t-61.5 -106t-92 -92t-112.5 -87.5t-96.5 -79t-59 -67.5q-35 -51 -56 -141q-12 -55 -61 -56q-27 0 -47.5 16.5t-13 59.5t23 87t42.5 86q51 77 173 167q140 102 178 148q74 89 74 184q0 112 -71 179q-58 56 -145 56 t-149.5 -21.5t-134.5 -74.5q-12 -10 -37.5 -10t-42 17.5t-16.5 39.5q0 39 37 62q90 63 172 86.5t161 23.5t141.5 -21.5t110.5 -64.5t76.5 -108.5zM522 78q0 -41 -28.5 -69.5t-69.5 -28.5t-69.5 28.5t-28.5 69.5t28.5 70.5t69.5 29.5t69.5 -29.5t28.5 -70.5z" />
<glyph unicode="@" horiz-adv-x="1640" d="M1124 563q0 -147 115 -147q106 0 183 107t77 261q0 347 -310 469q-114 45 -277 45t-279.5 -61t-194.5 -157.5t-115.5 -218.5t-37.5 -239.5t30.5 -224t98.5 -186.5q146 -174 442 -174q145 0 255 35q17 6 36 6t32 -16.5t13 -34.5q0 -39 -54 -53q-136 -37 -300 -37t-292 55 t-209 150q-157 183 -157 476q0 141 45 280.5t136.5 250.5t226.5 180.5t323.5 69.5t322.5 -53.5t216 -140.5q154 -163 154 -419q0 -190 -103 -328q-107 -143 -262.5 -143t-204.5 148q-101 -144 -262 -144q-102 0 -160 81q-49 68 -49 161t24.5 172.5t72.5 144.5 q112 148 276 148q124 0 221 -37q44 -15 35 -67l-43 -193q-25 -103 -25 -166zM1077 903q-69 21 -135.5 21t-115 -31t-82.5 -80q-70 -103 -70 -231q0 -72 28.5 -111t79.5 -39t92 20.5t72 55.5q62 71 84 176z" />
<glyph unicode="A" horiz-adv-x="1134" d="M1053 61q4 -41 -16.5 -61t-53.5 -20q-57 0 -63 57q-9 134 -33 328h-617q-37 -82 -73.5 -165t-73.5 -167q-25 -53 -65 -53t-58 24.5t-2 65.5q278 655 674 1364q44 75 100 75q29 0 47.5 -15t28.5 -62q151 -690 205 -1371zM874 492q-58 419 -137 796q-215 -389 -407 -796 h544z" />
<glyph unicode="B" horiz-adv-x="1251" d="M961 764q192 -69 192 -275q0 -25 -4 -55l-6 -53q-34 -268 -296 -351q-93 -30 -220 -30h-434q-27 0 -45.5 16.5t-18.5 36.5q0 23 6 53l254 1319q16 70 78 70h338q217 0 323 -99q95 -88 95 -229q0 -37 -4 -73l-11 -58q-31 -201 -247 -272zM1081 1090q6 21 6 62.5t-13 79.5 t-46 68q-73 68 -229 68h-283l-106 -551h292q232 0 326 123q33 43 45 107zM1020 485q0 207 -315 207h-318l-111 -565h359q263 0 345 163q24 48 32 103l6 51q2 10 2 20v21z" />
<glyph unicode="C" horiz-adv-x="1089" d="M322 426q0 -320 305 -320q116 0 237 68q35 20 54.5 34.5t44 14.5t41 -20.5t16.5 -44.5q0 -41 -75 -86q-150 -90 -324 -90q-229 0 -339 130q-96 116 -96 318q0 94 19 193l53 290q58 301 192 442q151 158 424 158q120 0 193.5 -37t91 -57.5t17.5 -43t-18.5 -42.5t-42 -20 t-37.5 10q-89 66 -209 66t-202.5 -40t-138.5 -111q-93 -119 -141 -366l-49 -274q-16 -94 -16 -172z" />
<glyph unicode="D" horiz-adv-x="1290" d="M1250.5 1175q19.5 -87 19.5 -151q0 -123 -21 -217l-49 -250q-43 -231 -160 -365q-165 -192 -471 -192h-376q-27 0 -45.5 16.5t-18.5 35.5q0 24 4 44l256 1329q16 70 78 70h344q252 0 369 -161q51 -72 70.5 -159zM1118 848q17 99 17 161t-15.5 128.5t-54.5 116.5 q-85 110 -266 110h-283l-240 -1237h295q239 0 364 145q95 109 134 318z" />
<glyph unicode="E" horiz-adv-x="1091" d="M1187 1480q19 -15 19 -45t-22.5 -49.5t-55.5 -19.5h-612l-108 -557h544q66 0 66 -57q0 -29 -21.5 -49.5t-54.5 -20.5h-557l-109 -553h629q29 0 47.5 -15.5t18.5 -43.5q0 -29 -21.5 -49.5t-56.5 -20.5h-700q-27 0 -45.5 17.5t-18.5 36.5q0 35 8 61l252 1310q16 70 78 70 h674q27 0 46 -15z" />
<glyph unicode="F" horiz-adv-x="1036" d="M385 682l-125 -635q-9 -65 -72 -65q-27 0 -45 17t-18 37q0 36 8 60l256 1329q16 70 78 70h653q29 0 47.5 -15.5t18.5 -45t-21.5 -49t-56.5 -19.5h-592l-108 -557h487q63 0 63 -57q0 -29 -21.5 -49.5t-53.5 -20.5h-498z" />
<glyph unicode="G" horiz-adv-x="1218" d="M1186 1337q0 -27 -18.5 -45t-44.5 -18t-41 17.5t-52 42.5q-75 52 -174 52q-195 0 -304.5 -119.5t-156.5 -379.5l-55 -289q-21 -107 -21 -188q0 -154 72 -227.5t215.5 -73.5t247.5 97t145 302l23 110h-270q-29 0 -45.5 17.5t-16.5 44.5t20.5 46t53.5 19h344q59 0 59 -57 q0 -9 -6 -45l-31 -151q-47 -242 -183 -376t-350 -134q-411 0 -411 430q0 82 23 211l53 290q57 298 190 442q147 158 406 158q196 0 311 -131q17 -18 17 -45z" />
<glyph unicode="H" horiz-adv-x="1335" d="M1358 1496q18 -17 18 -36q0 -23 -4 -43l-264 -1370q-12 -65 -72 -65q-27 0 -45 16t-18 36q0 24 4 44l113 594h-705l-121 -625q-4 -33 -25.5 -49t-47 -16t-44 16t-18.5 36q0 24 4 44l264 1368q15 67 72 67q27 0 45 -17t18 -36q0 -23 -4 -43l-118 -622h704l127 651 q11 67 72 67q27 0 45 -17z" />
<glyph unicode="I" horiz-adv-x="489" d="M514 1496q18 -17 18 -36q0 -23 -4 -43l-264 -1370q-4 -33 -25.5 -49t-47 -16t-44 16t-18.5 36q0 24 4 44l264 1368q15 67 72 67q27 0 45 -17z" />
<glyph unicode="J" horiz-adv-x="872" d="M914.5 1497q19.5 -16 19.5 -39.5t-6 -50.5l-172 -895q-51 -272 -188.5 -402t-393.5 -130q-170 0 -194 44q-9 17 -9 39.5t17.5 42t39 19.5t50 -6t111.5 -6t157 22.5t128 73.5q104 98 149 328l176 909q12 67 71 67q25 0 44.5 -16z" />
<glyph unicode="K" horiz-adv-x="1138" d="M264 47q-4 -33 -25.5 -49t-47 -16t-44 16t-18.5 36q0 24 4 44l264 1368q15 67 72 67q27 0 45 -17t18 -36q0 -23 -4 -43l-135 -704l774 776q25 25 53 24.5t46 -17.5t18 -45t-29 -54l-569 -559q209 -403 334 -748q10 -25 10 -49.5t-21.5 -41.5t-57 -17t-54.5 45 q-134 366 -311 712l-232 -227z" />
<glyph unicode="L" horiz-adv-x="1026" d="M471 1513q57 0 57 -61q0 -20 -3 -35.5t-7 -36.5l-242 -1253h629q29 0 46.5 -15.5t17.5 -43.5q0 -29 -20.5 -48.5t-55.5 -19.5h-700q-27 0 -45.5 17.5t-18.5 36.5q0 35 8 61l256 1329q16 70 78 69z" />
<glyph unicode="M" horiz-adv-x="1572" d="M1598.5 1497q17.5 -16 17.5 -35q0 -27 -4 -43l-266 -1374q-8 -63 -70 -63q-23 0 -41 15t-18 35q0 32 4 52l217 1120l-596 -921q-23 -37 -65 -37t-54 45l-240 915l-223 -1161q-12 -63 -70 -63q-25 0 -43 15t-18 35q0 28 4 48l266 1368q11 65 68 65t74 -57l266 -1022 l663 1032q29 47 82 47q29 0 46.5 -16z" />
<glyph unicode="N" horiz-adv-x="1345" d="M1329 1513q60 0 60 -59q0 -13 -7 -41l-262 -1368q-11 -63 -65.5 -63t-75.5 49l-492 1204l-229 -1190q-4 -31 -24.5 -47t-45.5 -16q-61 0 -61 59q0 17 4 37l264 1368q11 67 76 67q27 0 41 -13t25 -40l491 -1204l229 1190q4 33 25 50t47 17z" />
<glyph unicode="O" horiz-adv-x="1245" d="M1212.5 1226q20.5 -83 20.5 -152q0 -115 -19 -206l-47 -264q-48 -277 -161 -426q-148 -196 -426 -196q-208 0 -307 132q-87 117 -87 322q0 102 21 213l41 228q49 280 160 433q149 203 432 203q203 0 305 -139q47 -65 67.5 -148zM324 438q0 -327 258 -327q304 0 403 313 q29 92 47 194l49 279q15 78 15 153t-15.5 135t-47.5 104q-69 95 -191.5 95t-201.5 -43t-130 -115q-87 -122 -129 -366l-41 -239q-16 -98 -16 -183z" />
<glyph unicode="P" horiz-adv-x="1179" d="M1241 1132q0 -65 -12 -122l-8 -45q-35 -172 -159 -264.5t-331 -92.5h-358l-109 -561q-4 -33 -25.5 -50t-47 -17t-44 17t-18.5 38.5t4 42.5l260 1349q6 31 26.5 48.5t45.5 17.5h387q195 0 299 -111q90 -97 90 -250zM1096 1026q8 46 8 93.5t-14.5 94t-47.5 80.5 q-70 72 -202 72h-320l-123 -633h332q306 0 356 252z" />
<glyph unicode="Q" horiz-adv-x="1249" d="M901 74q-131 -92 -321 -92q-208 0 -307 132q-87 117 -87 322q0 102 21 213l41 228q49 284 158 433q149 203 434 203q203 0 305 -139q88 -121 88 -323q0 -92 -19 -183l-47 -264q-23 -123 -61.5 -240.5t-116.5 -207.5l107 -117q16 -18 17 -45t-19 -44t-45 -17.5t-41 18.5z M324 438q0 -327 258 -327q145 0 235 65l-69 78q-16 18 -11.5 39.5t20 36t36 16.5t32.5 -12l70 -76q59 66 89 159t48 201l49 279q15 78 15 153t-15.5 135t-47.5 104q-69 95 -191.5 95t-201.5 -43t-130 -115q-87 -122 -129 -366l-41 -239q-16 -98 -16 -183z" />
<glyph unicode="R" horiz-adv-x="1224" d="M1233 1144q0 -60 -10 -118l-11 -45q-29 -145 -127 -229t-245 -109q108 -261 204 -567q17 -52 -10.5 -73t-51.5 -21q-50 0 -64 51q-102 320 -218 600h-323l-113 -586q-4 -33 -25.5 -49t-47 -16t-44 16t-18.5 38.5t4 43.5l260 1347q16 66 72 66h379q200 0 300 -109 q89 -98 89 -240zM1087 1040q7 43 7 88t-13.5 88.5t-44.5 77.5q-66 72 -205 72h-311l-119 -608h318q310 0 360 243z" />
<glyph unicode="S" horiz-adv-x="1120" d="M1073 1454q41 -18 41 -62q0 -22 -17.5 -43.5t-38.5 -21.5t-54 15q-101 44 -207.5 44t-178 -21.5t-124.5 -58.5q-107 -74 -107 -200q0 -163 193 -250q55 -25 117.5 -49.5t126 -53t114.5 -72.5q113 -97 113 -269q0 -209 -168 -325q-159 -110 -420 -110q-176 0 -330 68 q-43 19 -43 52.5t18.5 54t40 20.5t55.5 -16q108 -52 263 -52q223 0 335.5 86t112.5 216q0 132 -119 208q-53 35 -118.5 59.5t-127.5 50.5t-114.5 55.5t-93.5 71.5q-90 92 -90 247q0 195 160 308q148 105 372 105q158 0 289 -57z" />
<glyph unicode="T" horiz-adv-x="1132" d="M516 -18q-63 0 -63 61q0 13 8 53l241 1264h-395q-31 0 -48 17.5t-17 46t21.5 49t55.5 20.5h934q31 0 47.5 -17t16.5 -46t-21.5 -49.5t-56.5 -20.5h-397l-254 -1313q-14 -66 -72 -65z" />
<glyph unicode="U" horiz-adv-x="1277" d="M1337.5 1497q18.5 -16 18.5 -35q0 -23 -6 -53l-156 -815q-56 -281 -166 -420q-150 -192 -440 -192q-310 0 -386 254q-24 79 -24 154q0 128 25 245l155 811q4 33 26 50t47.5 17t44 -17t18.5 -36q0 -23 -7 -51l-153 -799q-19 -112 -19 -188q0 -154 64.5 -235t201 -81 t217.5 40t133 110q82 111 132 362l158 828q6 33 26.5 50t46 17t44 -16z" />
<glyph unicode="V" horiz-adv-x="1130" d="M1307 1417q-320 -658 -715 -1368q-33 -68 -90 -67q-66 0 -76 84q-127 788 -178 1374q-4 35 17.5 54t47 19t46 -15t22.5 -48q67 -668 160 -1239q386 708 653 1264q19 38 55.5 38t56 -27.5t1.5 -68.5z" />
<glyph unicode="W" horiz-adv-x="1738" d="M1891.5 1496q21.5 -17 21.5 -51t-222.5 -532.5t-387.5 -855.5q-35 -76 -105 -75q-39 0 -59.5 25.5t-24.5 88.5q-36 400 -63 1135q-230 -526 -529 -1165q-38 -84 -104 -84q-43 0 -60.5 25.5t-21.5 70.5q-72 846 -78 1368q0 35 20.5 51t46.5 16t45 -16t21 -51 q24 -741 66 -1237q235 492 540 1216q20 45 41 66.5t62 21.5t55 -29.5t16 -74.5q6 -405 28 -729t32 -469q293 633 553 1259q19 43 52.5 43t55 -17z" />
<glyph unicode="X" horiz-adv-x="1075" d="M1204 1405q-177 -246 -504 -631q78 -174 157 -347t149 -351q14 -41 -9.5 -67.5t-48.5 -26.5q-50 0 -69 43q-146 362 -271 637q-393 -481 -524 -654q-19 -26 -45 -26t-41.5 10t-23.5 26q-18 38 10 72q139 182 283.5 355t285.5 343q-210 467 -277 631q-16 41 7.5 67.5 t62.5 26.5t57 -45q57 -141 119 -283.5t123 -283.5q294 351 459 584q20 29 44.5 28.5t40 -10.5t23.5 -25q20 -37 -8 -73z" />
<glyph unicode="Y" horiz-adv-x="976" d="M1182 1415q-260 -426 -580 -878l-96 -490q-12 -65 -72 -65q-25 0 -43 15t-18 35q0 26 4 46l88 463q-151 470 -244 874q-6 18 -6 42t21.5 40t46.5 16q53 0 65 -53q75 -341 209 -768q274 393 518 789q20 33 49 32.5t48.5 -17.5t19.5 -39t-10 -42z" />
<glyph unicode="Z" horiz-adv-x="999" d="M1153 1475q14 -21 14 -43q0 -28 -43 -84l-942 -1219h664q31 0 51 -20q14 -17 14 -42.5t-21.5 -46t-55.5 -20.5h-785q-29 0 -47 18q-16 16 -16 39q0 33 45 84l942 1223h-660q-52 0 -62 40q-3 11 -3 29.5t21.5 39t56.5 20.5h776q33 0 51 -18z" />
<glyph unicode="[" horiz-adv-x="505" d="M16 -137l338 1757q6 31 25.5 48.5t46.5 17.5h172q30 0 49 -19q17 -17 17 -43.5t-21.5 -47t-56.5 -20.5h-107l-313 -1626h94q50 0 62 -40q4 -11 4 -30.5t-21.5 -40t-56.5 -20.5h-166q-27 0 -46.5 17.5t-19.5 46.5z" />
<glyph unicode="\" horiz-adv-x="622" d="M561 -59q4 -27 -12.5 -47.5t-42.5 -24.5q-27 -4 -47.5 12.5t-24.5 42.5l-198 1635q-4 27 12 47t43 24t47 -12t24 -45z" />
<glyph unicode="]" horiz-adv-x="507" d="M638 1669.5q19 -16.5 19 -37t-2 -26.5l-333 -1741q-6 -31 -27 -48.5t-47 -17.5h-172q-33 0 -46 15q-18 22 -18 49t21.5 47t56.5 20h107l313 1626h-96q-30 0 -49 19q-15 15 -15 42.5t21.5 48t56.5 20.5h166q25 0 44 -16.5z" />
<glyph unicode="^" horiz-adv-x="1005" d="M999 950q11 -22 11 -43q0 -59 -64 -59q-38 0 -57 45l-184 446l-371 -465q-18 -27 -52.5 -26.5t-49.5 18t-15 41t16 43.5l412 514q31 45 69 45t51 -13t21 -36z" />
<glyph unicode="_" horiz-adv-x="911" d="M822 -215q38 -11 38 -63q0 -17 -20.5 -35.5t-51.5 -18.5h-903q-30 0 -45 17q-14 14 -14 41t19.5 45t52.5 18h901q10 0 23 -4z" />
<glyph unicode="`" horiz-adv-x="1089" d="M881 1292q10 -23 -0.5 -42t-33 -28t-44 0t-31.5 31l-139 303q-10 23 -2 47.5t37 34.5t52 -2t34 -34z" />
<glyph unicode="a" horiz-adv-x="1019" d="M403.5 996.5q73.5 35.5 199.5 35.5t235 -86l8 43q7 43 59 43q25 0 43.5 -15t18.5 -44l-142 -742q-14 -68 -5 -93t39 -45.5t24 -50.5q-11 -54 -72 -54q-62 0 -103 63q-6 10 -10 27q-137 -90 -278.5 -90t-218 87t-76.5 232q0 57 16 150l25 143q33 197 116 300 q48 61 121.5 96.5zM254 324q0 -218 197 -218q107 0 239 97l119 620q-88 92 -217 92q-204 0 -268 -203q-19 -59 -29 -122l-33 -178q-8 -50 -8 -88z" />
<glyph unicode="b" horiz-adv-x="1042" d="M428 958q123 72 263.5 72t210 -80t69.5 -215q0 -66 -13 -135l-36 -205q-35 -195 -136.5 -301t-293.5 -106q-134 0 -250 94q-27 -43 -68 -68.5t-78 -25.5q-63 0 -63 49q0 31 16.5 43t48 31.5t42 46t20.5 84.5l227 1179q12 61 70 62q23 0 41 -14.5t18 -36t-4 -41.5z M281 199q88 -93 213.5 -93t198.5 75t102 229l39 213q10 51 10 94q0 92 -43 144t-135 52q-135 0 -265 -94z" />
<glyph unicode="c" horiz-adv-x="847" d="M262 356q0 -250 244 -250q78 0 125 13.5t66.5 26t38.5 12.5t37 -11.5t18 -36.5q0 -43 -61 -74q-98 -48 -258 -48t-248.5 96t-88.5 264q0 63 6 96l25 140q46 311 278 412q80 34 166 34q205 0 272 -70q13 -13 13 -39t-18.5 -41.5t-38 -15.5t-27.5 4t-19 10q-41 19 -65 24 q-54 11 -104 11q-139 0 -224.5 -96t-107.5 -250l-23 -141q-6 -35 -6 -70z" />
<glyph unicode="d" horiz-adv-x="1019" d="M403.5 994q73.5 36 199.5 36t226 -96l95 487q4 29 24.5 45.5t44 16.5t41 -14.5t17.5 -38t-4 -44.5l-222 -1155q-8 -35 -8 -63q0 -47 41 -76q27 -14 27 -45t-23.5 -45t-54.5 -14t-62.5 23.5t-46.5 66.5q-137 -90 -279.5 -90t-218 90t-75.5 231q0 51 16 150l25 141 q33 199 116 299q48 59 121.5 95zM805 805q-92 111 -213 110q-204 0 -268 -203q-19 -59 -29 -122l-33 -180q-8 -41 -8 -86q0 -102 49 -160t148 -58q112 0 237 93z" />
<glyph unicode="e" horiz-adv-x="962" d="M914.5 827.5q17.5 -61.5 17.5 -111.5q0 -78 -8 -134l-11 -60q-9 -53 -61 -53h-578l-10 -49q-4 -40 -4 -76q0 -106 56.5 -173t162.5 -67q105 0 221 46q21 8 41.5 8t35 -16.5t14.5 -49.5t-55 -54q-134 -50 -245.5 -50t-175 28.5t-103.5 77.5q-79 97 -79 254q0 53 8 101 l27 161q41 290 266 386q78 34 173 34t154.5 -25.5t97.5 -70.5t55.5 -106.5zM797 580q10 68 10 122q0 220 -193 220q-143 0 -217.5 -86t-99.5 -224l-6 -32h506z" />
<glyph unicode="f" horiz-adv-x="585" d="M825 1434q0 -29 -19.5 -48.5t-51.5 -19.5h-90q-167 0 -201 -192l-29 -156h172q25 0 41.5 -14.5t16.5 -40t-19.5 -44t-50.5 -18.5h-184l-164 -852q-4 -29 -23.5 -45t-44.5 -16t-42 15t-17 33q0 26 4 46l158 819h-62q-27 0 -43 15.5t-16 41t19.5 43t49.5 17.5h74l35 180 q58 289 321 289h107q59 0 59 -53z" />
<glyph unicode="g" horiz-adv-x="989" d="M408 996q73 36 198.5 36t231.5 -92l10 47q8 45 59 45q25 0 43.5 -15t18.5 -35.5t-2 -25.5l-172 -890q-85 -443 -463 -443q-143 0 -248 47q-41 20 -41 51.5t17.5 49.5t39.5 18t50 -12q82 -35 171 -35t145 24.5t96 68.5q74 82 106 243l4 22q-123 -70 -232 -69 q-154 0 -229.5 90t-75.5 231q0 80 17 150l16 98q51 305 240 396zM811 817q-90 98 -215 98q-206 0 -270 -203q-19 -59 -29 -122l-25 -135q-8 -46 -8 -88q0 -102 49 -159.5t148 -57.5q115 0 239 90z" />
<glyph unicode="h" horiz-adv-x="1040" d="M397 926q135 104 286.5 104t217.5 -77.5t66 -204.5q0 -47 -17 -146l-108 -553q-4 -29 -23.5 -45t-43.5 -16t-42 15t-18 36.5t6 50.5l102 526q4 27 8.5 55.5t4.5 57.5q0 82 -38 130t-128 48q-166 0 -301 -133l-142 -725q-4 -31 -23.5 -46t-43 -15t-42 15t-18.5 38.5 t6 52.5l259 1327q4 29 23.5 45.5t43 16.5t42 -14.5t18.5 -34.5t-7 -50z" />
<glyph unicode="i" horiz-adv-x="430" d="M500 1374q0 -35 -23.5 -57.5t-58.5 -22.5t-57.5 22.5t-22.5 57.5t22.5 58.5t57.5 23.5t58.5 -23.5t23.5 -58.5zM406 973l-177 -924q-6 -29 -25.5 -45t-43 -16t-42 15t-18.5 34.5t2 25.5l174 908q6 29 26 45t43.5 16t42 -15t18.5 -44z" />
<glyph unicode="j" horiz-adv-x="430" d="M500 1374q0 -35 -23.5 -57.5t-58.5 -22.5t-57.5 22.5t-22.5 57.5t22.5 58.5t57.5 23.5t58.5 -23.5t23.5 -58.5zM406 973l-191 -998q-37 -190 -129 -273t-246 -83q-23 0 -47 15.5t-19 46.5q8 52 72 57q98 2 155.5 57t86.5 201l188 975q6 29 26 45t43.5 16t42 -15t18.5 -44 z" />
<glyph unicode="k" horiz-adv-x="911" d="M588 610q136 -282 225 -538q4 -16 4 -35t-20.5 -34t-44.5 -15q-47 0 -60 45q-82 240 -205 491l-202 -184l-58 -291q-4 -29 -23.5 -45t-43 -16t-42 15t-18.5 33q0 24 4 44l258 1341q6 29 26 45.5t43.5 16.5t42 -14.5t18.5 -34.5q0 -37 -11 -70l-162 -846l539 494 q20 18 46 18t40 -15.5t14 -36.5q0 -33 -32 -63z" />
<glyph unicode="l" horiz-adv-x="436" d="M324 47q0 -59 -76 -59q-45 0 -83 36.5t-38 91.5q0 65 14 156l224 1149q4 29 23.5 45.5t43 16.5t42 -14.5t18.5 -39t-7 -43.5l-223 -1155q-6 -48 -6 -70q0 -42 35 -65q33 -25 33 -49z" />
<glyph unicode="m" horiz-adv-x="1636" d="M952 879q167 153 344 153q207 0 258 -169q15 -52 15 -101q0 -75 -17 -160l-108 -553q-4 -29 -23.5 -45t-43.5 -16t-42 15t-18 35q0 26 4 42l102 532q15 72 15 135.5t-37 111.5t-129 48q-157 0 -297 -149q0 -86 -17 -156l-106 -553q-4 -29 -24.5 -45t-44.5 -16t-41 15 t-17 33q0 26 4 46l102 532q15 72 15 134.5t-37 110.5t-122 48q-157 0 -290 -133l-139 -725q-4 -29 -23.5 -45t-44.5 -16t-43 15t-18 33q0 24 4 44l135 696q8 40 8 66q0 47 -33.5 67t-33.5 51t23.5 45.5t57.5 14.5t67.5 -32t37.5 -77q151 121 312 121q189 0 245 -153z" />
<glyph unicode="n" horiz-adv-x="1064" d="M397 911q160 121 314.5 121t220 -78.5t65.5 -205.5q0 -53 -16 -146l-109 -553q-4 -29 -23.5 -45t-43 -16t-42 15t-18.5 35q0 25 5 50l104 528q12 81 12 113q0 82 -39 130t-133 48q-155 0 -297 -133q0 -11 -6 -41l-133 -684q-4 -29 -23.5 -45t-43.5 -16t-42 15t-18 35 q0 26 4 50l135 688q6 37 6 64q0 48 -38 71q-29 20 -29 50t23.5 44.5t55.5 14.5t65.5 -28.5t43.5 -80.5z" />
<glyph unicode="o" horiz-adv-x="1017" d="M930.5 822q17.5 -61 17.5 -118t-10 -114l-43 -223q-78 -379 -444 -379q-167 0 -249 99q-73 88 -73 230q0 61 12 127l41 211q50 263 258 345q78 30 176.5 30t160 -27.5t99 -73.5t55 -107zM809 602q10 47 10 90t-11 83t-34 69q-52 65 -142 65t-143 -21.5t-90 -57.5 q-68 -67 -90 -195l-41 -205q-10 -45 -10 -121.5t45 -138t158 -61.5q203 0 273 167q22 50 34 109z" />
<glyph unicode="p" horiz-adv-x="1040" d="M393 926q136 104 285.5 104t221 -82t71.5 -217q0 -86 -23 -180l-33 -158q-35 -190 -125 -287q-109 -118 -307 -118q-126 0 -231 67l-72 -368q-4 -29 -23.5 -45.5t-43 -16.5t-42 14.5t-18.5 32.5q0 25 4 45l205 1065q8 36 8 66.5t-9 45.5t-30 30q-27 14 -26 43q0 65 74 65 q35 0 69.5 -27.5t44.5 -78.5zM276 178q87 -74 185 -74t153.5 26t91.5 70q56 70 87 222l36 194q9 44 9 105q0 190 -189 190q-72 0 -135 -34.5t-121 -79.5q0 -20 -12 -68z" />
<glyph unicode="q" horiz-adv-x="1015" d="M590 1032q153 0 262 -96q27 43 68.5 69.5t78.5 26.5q66 0 66 -51q0 -29 -20.5 -44t-43.5 -30q-31 -16 -43 -44.5t-22 -86.5l-209 -1089q-12 -61 -70 -62q-23 0 -41 14.5t-18 34.5q0 25 6 52l64 333q-117 -72 -236 -71q-154 0 -229.5 87t-75.5 232q0 53 16 152l27 141 q33 195 116 300q104 132 304 132zM815 821q-94 94 -219 94q-206 0 -270 -203q-19 -59 -29 -122l-33 -180q-8 -41 -8 -86q0 -102 49 -160t148 -58q108 0 243 93z" />
<glyph unicode="r" horiz-adv-x="753" d="M401 895q122 135 288.5 135t166.5 -76q0 -66 -65 -65q-11 0 -34 5q-40 9 -91 9q-192 0 -283 -198l-125 -656q-4 -29 -23.5 -45t-44.5 -16t-42 15t-17 33q0 26 4 46l133 694q6 39 6 67q0 47 -41 70q-25 18 -24 45q0 62 72 62q45 0 80.5 -35t39.5 -90z" />
<glyph unicode="s" horiz-adv-x="847" d="M805 938q0 -57 -60 -57q-16 0 -32.5 7t-61.5 17t-98 10q-121 0 -193.5 -48t-72.5 -117q0 -98 143 -154q198 -77 243 -118q89 -78 89 -189q0 -148 -126 -227q-117 -74 -300 -74q-177 0 -260 50q-31 19 -31 49t17.5 46.5t37.5 16.5t38 -10.5t57 -19.5q78 -18 139 -18 q150 0 225.5 52.5t75.5 130.5q0 75 -76 121q-35 22 -79 39.5t-88 35.5t-86 40t-74 53q-70 68 -70 157t32.5 142t87.5 89q111 70 271 70q81 0 147 -16t85.5 -34.5t19.5 -43.5z" />
<glyph unicode="t" horiz-adv-x="641" d="M654 1016q34 -11 34 -60q0 -18 -19.5 -36.5t-50.5 -18.5h-196l-98 -483q-21 -94 -21 -161t32 -100.5t122 -33.5h41q30 0 47 -19q14 -14 14 -39.5t-19.5 -45t-54.5 -19.5h-47q-147 0 -206.5 64.5t-59.5 177.5q0 68 25 188l96 471h-57q-27 0 -46 19q-14 14 -14 38.5 t19.5 43t50.5 18.5h71l48 250q6 29 25.5 45t43 16t42 -15.5t18.5 -34.5t-2 -26l-48 -235h187q10 0 23 -4z" />
<glyph unicode="u" horiz-adv-x="1075" d="M752 111q-154 -123 -309 -123t-222 76.5t-67 207.5q0 66 16 148l106 551q4 29 23.5 45t43.5 16t42 -15.5t18 -34.5q0 -24 -4 -44l-100 -520q-14 -63 -14 -140t38.5 -122t139.5 -45q143 0 293 143l137 717q4 29 23.5 45t44.5 16t42 -15t17 -33v-28q0 -8 -2 -18l-137 -707 q-12 -84 0 -104.5t35.5 -35.5t23.5 -42q0 -61 -74 -61q-41 0 -74.5 31.5t-39.5 91.5z" />
<glyph unicode="v" horiz-adv-x="882" d="M963 944q-250 -476 -490 -891q-38 -65 -86.5 -65t-63 25.5t-22.5 68.5q-98 534 -133 868q-4 41 14.5 61.5t52 20.5t45 -21.5t15.5 -41.5q46 -387 117 -801q193 341 440 821q23 43 59.5 43t52 -26.5t-0.5 -61.5z" />
<glyph unicode="w" horiz-adv-x="1378" d="M1446 936q-248 -541 -424 -883q-18 -35 -38.5 -50t-54.5 -15t-48.5 22.5t-20.5 67.5q-23 182 -39 363.5t-33 367.5q-261 -548 -368 -756q-28 -65 -92 -65q-39 0 -53.5 28.5t-30.5 161.5q-33 291 -70 778q-2 35 15.5 55.5t50 20.5t44 -19.5t13.5 -47.5q47 -568 72 -781 q197 391 376 791q25 57 82 57q55 0 64 -78q28 -405 72 -770q98 199 192 400.5t146 313.5t65.5 123t43.5 11t41 -27.5t-5 -68.5z" />
<glyph unicode="x" horiz-adv-x="870" d="M901 942q-108 -153 -350 -414q59 -109 115.5 -216t95.5 -228q12 -43 -7.5 -69.5t-57.5 -26.5t-50 37q-49 150 -186 397q-233 -248 -340 -399q-27 -35 -60 -35t-50 27.5t9 64.5q117 163 383 444q-53 100 -104 201.5t-84 212.5q-10 41 9.5 67.5t58.5 26.5t49 -37 q53 -168 160 -364q211 226 305 366q25 35 58.5 35t52 -26.5t-6.5 -63.5z" />
<glyph unicode="y" horiz-adv-x="890" d="M543 139q-150 -277 -273 -389q-137 -125 -307 -125q-33 0 -50 17.5t-17 46.5t20.5 46t58 18t80.5 12.5t86 38.5q91 59 178 188q-108 546 -157 940q-2 10 -2 18v13q0 29 17.5 49t45 20t43 -13t19.5 -48q42 -330 129 -815l434 831q23 45 59 45q64 0 64 -55q0 -27 -17 -59z " />
<glyph unicode="z" horiz-adv-x="815" d="M866 1016q37 -12 37 -60q0 -18 -26 -49l-689 -786h480q32 0 47.5 -17.5t15.5 -42t-20.5 -43t-53.5 -18.5h-598q-27 0 -44 17t-17 35q0 32 25 57l692 788h-447q-29 0 -47 18q-14 14 -14 41t20.5 45.5t51.5 18.5h565q10 0 22 -4z" />
<glyph unicode="{" horiz-adv-x="573" d="M379 1022l-10 303q0 168 85 264.5t220 96.5h12q29 0 45.5 -17.5t16.5 -45.5t-18.5 -45t-47.5 -17h-10q-65 0 -103 -38q-71 -73 -71 -206l8 -291q0 -208 -162 -285v-6q72 -40 72 -157q0 -78 -22.5 -148t-49.5 -136.5t-49.5 -129t-22.5 -127t23.5 -89t73.5 -24.5h6 q27 0 44 -14t14 -45q-6 -64 -73 -64h-8q-88 0 -147.5 49.5t-59.5 169.5q0 110 73 286q28 67 50.5 133.5t22.5 131.5q0 66 -26.5 90.5t-57.5 24.5h-10q-27 2 -38.5 18.5t-6.5 40.5q9 56 67 56h10q49 0 82 35q68 70 68 186z" />
<glyph unicode="|" horiz-adv-x="438" d="M66 -137l337 1759q6 31 27 48.5t46.5 17.5t44 -17.5t18.5 -46.5v-18l-336 -1741q-6 -31 -26.5 -48.5t-46.5 -17.5t-45 16.5t-19 47.5z" />
<glyph unicode="}" horiz-adv-x="571" d="M397 750q-71 40 -71 159q0 76 22.5 146.5t49 136t49 129t22.5 128.5t-24.5 88.5t-71.5 23.5h-6q-27 0 -44.5 14t-15.5 45t22.5 48.5t51.5 17.5h8q88 0 147.5 -50.5t59.5 -169.5q0 -109 -72 -286q-28 -68 -50.5 -133.5t-22.5 -131.5t26.5 -90t57.5 -26h10q54 -4 45 -58 q-8 -57 -68 -57h-10q-49 0 -82 -35q-68 -72 -68 -184l9 -303q0 -170 -84 -265.5t-219 -95.5h-13q-29 0 -46 17.5t-17 45.5t19.5 44t47.5 16h9q113 0 158 123q18 47 18 121l-11 291q0 210 164 284v7z" />
<glyph unicode="~" horiz-adv-x="1026" d="M948 582q0 -84 -140 -119q-40 -10 -88 -10t-88 13t-76 30.5t-69.5 31t-73.5 13.5t-63.5 -9.5t-40 -19.5t-30 -19.5t-38 -9.5t-44 19.5t-19.5 47.5t18.5 51.5t50.5 40.5q72 38 138.5 38t108 -14.5t76.5 -31.5q93 -44 138.5 -44t69 9t40 21.5t29.5 21.5t38 9t44 -20t19 -49 z" />
<glyph unicode="&#xa3;" d="M369 750q-25 122 -25 229.5t39 203t111 167.5q158 155 411 155q135 0 230 -28q43 -15 43 -52t-18.5 -56t-40 -19t-37 5t-47.5 10q-70 11 -152 11t-161 -31.5t-132 -86.5q-111 -114 -111 -277q0 -109 25 -231h360q26 0 40 -14q18 -20 18 -44.5t-19.5 -42.5t-50.5 -18h-338 q9 -81 5.5 -176.5t-49.5 -180t-116 -145.5h600q30 0 48 -18t18 -44t-21.5 -46.5t-56.5 -20.5h-786q-53 0 -63 40q-3 11 -3 19q0 65 88 70q199 128 207 334q2 98 -6 168h-78q-27 0 -43 16q-14 14 -14 40t18.5 43.5t48.5 17.5z" />
<glyph unicode="&#xa6;" horiz-adv-x="438" d="M312.5 601q19.5 -17 19.5 -35q0 -37 -6 -46l-125 -653q-6 -31 -26.5 -48.5t-46.5 -17.5t-45.5 17.5t-19.5 39t7 44.5l125 649q15 67 71 67q27 0 46.5 -17zM519.5 1674.5q19.5 -17.5 19.5 -34.5q0 -41 -7 -49l-124 -651q-6 -33 -27 -49.5t-46.5 -16.5t-45 16.5t-19.5 40 t6 42.5l125 651q8 33 28 50.5t45.5 17.5t45 -17.5z" />
<glyph unicode="&#xa7;" horiz-adv-x="1112" d="M831 197q52 -79 52 -168.5t-35 -160.5t-96 -123q-131 -110 -320 -110q-169 0 -278 52q-43 21 -43 52.5t16 48.5t37.5 17t35.5 -7q84 -44 234 -44q139 0 229 77q87 75 87 187q0 118 -150 192q-45 23 -102 48t-115.5 53.5t-104.5 65.5q-100 82 -100 209q0 154 125 269 q37 34 80 67q-51 68 -51 162t34.5 164.5t95.5 122.5q131 110 320 110q164 0 277 -51q43 -22 43 -53.5t-16.5 -48.5t-38 -17t-35 8t-50.5 20q-69 23 -161.5 23t-150.5 -20.5t-100 -56.5q-87 -75 -87 -185q0 -121 150 -194q46 -23 103.5 -48t116 -53.5t103.5 -65.5 q100 -82 100 -209q0 -190 -205 -333zM864 381.5q43 56.5 43 132.5t-45 118t-111.5 73.5t-143.5 62.5t-138 78q-78 -55 -120 -111.5t-42 -131.5t45 -118t110.5 -74.5t142.5 -62.5t138 -78q78 55 121 111.5z" />
<glyph unicode="&#xa9;" horiz-adv-x="1806" d="M1751 745q0 -158 -60.5 -297t-164 -242.5t-241.5 -163.5t-297 -60t-298 60t-242.5 163.5t-164 243t-60.5 296.5q0 158 60.5 297.5t164 243t242.5 163.5t298 60t297 -60t241.5 -163.5t164 -243t60.5 -297.5zM1640 745q0 135 -51 254t-140 208t-207 141.5t-253 52.5 t-255 -52.5t-209 -141.5q-191 -191 -191 -462q0 -135 51 -254.5t140 -208.5t209 -141.5t255 -52.5t253 52.5t207 141.5t140 208.5t51 254.5zM1208.5 443.5q14.5 -17.5 14.5 -45.5t-43 -46q-85 -37 -182 -37t-158.5 30t-102.5 80q-80 98 -80 263v113q0 159 83 260 q93 113 247 113q109 0 203 -39q33 -18 33 -44.5t-15.5 -43.5t-33 -17t-42.5 12q-54 25 -150.5 25t-155 -72.5t-58.5 -193.5v-113q0 -189 120 -244q42 -20 91 -20q101 0 168 31q12 6 29.5 6t32 -17.5z" />
<glyph unicode="&#xab;" horiz-adv-x="1187" d="M1147 1025.5q27 -4.5 42 -24.5t9 -45.5t-27 -44.5l-407 -362l283 -373q14 -18 14 -45t-22 -43t-47 -12t-40 22l-313 410q-6 10 -15.5 25.5t-5.5 32.5q5 22 33 50l449 396q20 18 47 13.5zM684 1001q14 -20 9 -45.5t-25 -44.5l-408 -362l281 -373q14 -18 14 -45t-20 -43 t-46 -12t-40 22l-316 410q-6 10 -15 25.5t-5 32.5q5 21 34 50l447 396q23 18 49.5 13.5t40.5 -24.5z" />
<glyph unicode="&#xac;" horiz-adv-x="1040" d="M1020 512q-4 -29 -24.5 -45t-47.5 -16t-41 19t-8 48l37 199h-662q-27 0 -43 17.5t-13 44t23.5 46t49.5 19.5h727q29 0 44 -20.5t9 -49.5z" />
<glyph unicode="&#xad;" horiz-adv-x="964" d="M803 664q29 0 46 -19t17 -43.5t-20.5 -43.5t-54.5 -19h-521q-29 0 -47 18q-16 16 -16 42t20.5 45.5t55.5 19.5h520z" />
<glyph unicode="&#xae;" horiz-adv-x="1806" d="M1751 745q0 -158 -60.5 -297t-164 -242.5t-241.5 -163.5t-297 -60t-298 60t-242.5 163.5t-164 243t-60.5 296.5q0 158 60.5 297.5t164 243t242.5 163.5t298 60t297 -60t241.5 -163.5t164 -243t60.5 -297.5zM1640 745q0 135 -51 254t-140 208t-207 141.5t-253 52.5 t-255 -52.5t-209 -141.5q-191 -191 -191 -462q0 -135 51 -254.5t140 -208.5t209 -141.5t255 -52.5t253 52.5t207 141.5t140 208.5t51 254.5zM1268 897q0 -66 -41 -124t-131 -81l155 -289q8 -10 8.5 -30.5t-17 -35.5t-46.5 -15t-41 32l-176 326h-152v-301q0 -23 -15 -39 t-39 -16t-39 16t-15 39v731q0 25 15.5 40t37.5 15h229q137 0 207 -67q60 -59 60 -148v-53zM1157 946q0 83 -79 113q-31 12 -81 12h-170v-295h168q128 0 155 84q7 21 7 39v47z" />
<glyph unicode="&#xb0;" horiz-adv-x="806" d="M901 1182q0 -137 -96 -231q-97 -95 -234 -95q-136 0 -233 95q-96 94 -96 231q0 138 96 232q97 95 233 95q137 0 234 -95q96 -94 96 -232zM791 1182q0 91 -65 154q-66 65 -155 65q-90 0 -154.5 -64.5t-64.5 -154.5q0 -89 64 -155q63 -64 155 -64q91 0 155 64q65 65 65 155 z" />
<glyph unicode="&#xb1;" horiz-adv-x="1007" d="M1010 846q39 -11 39 -64q0 -18 -20.5 -37.5t-55.5 -19.5h-285l-57 -299q-6 -31 -25.5 -47.5t-43.5 -16.5t-42 16.5t-18 45.5v16l55 285h-274q-29 0 -47 18q-15 15 -15 40.5t20.5 46t53.5 20.5h287l57 299q6 29 25.5 45t43.5 16t42 -15t18 -34.5t-2 -25.5l-53 -285h272 q12 0 25 -4zM870 121q37 -11 37 -63q0 -19 -20.5 -38.5t-55.5 -19.5h-690q-31 0 -49 18q-14 14 -14 41t20.5 46.5t55.5 19.5h690q12 0 26 -4z" />
<glyph unicode="&#xb2;" horiz-adv-x="919" d="M344 594q-47 0 -47 41t26.5 105.5t98.5 129.5q62 62 130.5 110t107 77.5t69.5 61.5q68 70 68 141.5t-39 109t-90 37.5q-87 0 -140 -31q-23 -12 -37 -22.5t-32 -10.5t-29.5 12.5t-11.5 34t20 33.5q95 72 209 72t178 -61t64 -172q0 -122 -139 -244q-52 -45 -140 -104 q-163 -112 -209 -230h347q45 0 45 -41q0 -23 -14.5 -36t-37.5 -13h-397z" />
<glyph unicode="&#xb3;" horiz-adv-x="919" d="M731 1049q109 -58 109 -195q0 -114 -80 -188q-87 -82 -225 -82q-115 0 -179 45q-55 35 -55 60t12.5 38.5t30.5 13.5t29.5 -12t38.5 -29q42 -28 110 -28t108 15t66 42q52 56 52 114t-17.5 86.5t-45.5 46.5q-49 30 -132 30h-8q-23 0 -34 14t-11 31q0 16 12 29.5t35 13.5h45 q69 0 114.5 32.5t63.5 64.5t18 80t-34.5 93t-114.5 45q-86 0 -150 -51q-14 -10 -30 -10t-29.5 14t-13.5 31.5t18 33.5q84 70 209 70q115 0 179 -71q57 -63 57 -152.5t-45.5 -143t-102.5 -81.5z" />
<glyph unicode="&#xb5;" horiz-adv-x="1075" d="M752 111q-154 -123 -308 -123t-211 88l-83 -434q-6 -29 -26 -45.5t-43.5 -16.5t-42 15.5t-18.5 37t7 50.5l249 1288q4 29 23.5 45t43.5 16t42 -15.5t18 -41t-6 -51.5l-98 -506q-14 -77 -14 -147q0 -160 178 -160q143 0 293 143l137 717q4 29 23.5 45t44.5 16t42 -15 t17 -35q0 -43 -6 -58l-133 -693q-12 -83 0 -104t35.5 -36t23.5 -42q0 -61 -74 -61q-41 0 -74.5 32.5t-39.5 90.5z" />
<glyph unicode="&#xb6;" horiz-adv-x="1267" d="M1348 1497q59 0 59 -51q0 -29 -19.5 -48.5t-52.5 -19.5h-106l-318 -1644q-12 -66 -73 -66q-27 0 -44.5 16.5t-17.5 35.5q0 25 4 47l312 1611h-254l-316 -1644q-12 -66 -73.5 -66t-61.5 66q0 11 4 33l184 954q-132 4 -220 94q-83 85 -83 219q0 182 146 324 q143 139 319 139h611z" />
<glyph unicode="&#xb9;" horiz-adv-x="919" d="M791 1454l-148 -768h111q20 0 32.5 -12.5t12.5 -30.5t-15.5 -31.5t-38.5 -13.5h-405q-23 0 -32 10q-13 14 -13 32.5t14.5 32t36.5 13.5h201l131 674l-234 -152q-4 -2 -6 -2t-12 -5t-25.5 3t-21.5 25q-14 37 22 59l304 195q23 16 43 16q43 0 43 -45z" />
<glyph unicode="&#xbb;" horiz-adv-x="1183" d="M1141 590q40 -50 8 -85q-10 -11 -21 -22l-446 -395q-23 -18 -49.5 -14t-42.5 24q-14 20 -8 46t26 42l408 363l-281 375q-14 18 -15 43.5t19 44.5q23 16 48.5 12t39.5 -23zM652 565q9 -15 5 -32q-5 -20 -32 -50l-449 -395q-20 -18 -48 -14t-42 24t-9 46t27 42l408 363 l-283 375q-14 18 -14 43.5t21 44.5q23 16 48 12t38 -23l315 -411z" />
<glyph unicode="&#xbc;" horiz-adv-x="919" d="M739 745q19 0 30 -11t11 -28t-13 -29.5t-36 -12.5h-375q-21 0 -30 12q-11 8 -11 26t13.5 30.5t33.5 12.5h187l119 623l-215 -139q-26 -13 -41 -4.5t-19 22.5q-14 33 21 56l280 178q20 16 41 16q37 0 37 -41v-10l-135 -701h102zM866 551q11 -13 11 -29t-13.5 -29.5 t-36.5 -13.5h-659q-22 0 -31.5 11.5t-9.5 28.5t13.5 30.5t35.5 13.5h660q18 0 30 -12zM518 -14l-33 -172h58q16 0 28.5 -11.5t12.5 -28.5t-13.5 -30.5t-35.5 -13.5h-66l-27 -138q-9 -41 -43 -41q-16 0 -28.5 11.5t-12.5 29.5v11l27 127h-272q-18 0 -33 14q-10 14 -10 29 q0 14 8 22l366 580q12 23 34 23q46 -2 46 -44q0 -12 -10 -28l-326 -512h211l35 172q9 39 43 39q16 0 28.5 -10.5t12.5 -28.5z" />
<glyph unicode="&#xbd;" horiz-adv-x="919" d="M768 739q10 -7 10 -25.5t-13 -32t-34 -13.5h-377q-16 0 -30 12q-10 12 -10.5 29.5t13 30t35.5 12.5h185l121 620l-217 -137q-2 -2 -4.5 -3t-11.5 -5t-23.5 3t-20.5 23q-14 33 21 54l280 180q23 16 41 16q39 0 39 -41q0 -8 -2 -12l-133 -698h100q22 0 31 -13zM168 483 q-41 0 -41 39q0 18 13.5 31.5t35.5 13.5h660q21 0 31 -11.5t10 -28.5t-13.5 -30.5t-36.5 -13.5h-659zM168 -432q-43 0 -43 38t25.5 97t76 107.5t88 76t73.5 55.5t73 55.5t65 56.5q62 68 62 132t-37 98.5t-84 34.5q-75 0 -125 -28q-23 -10 -36 -20.5t-30.5 -10.5t-27.5 11.5 t-10 29.5t18 35q87 65 193 65t165.5 -57.5t59.5 -159.5q0 -146 -248 -315q-164 -109 -203 -217h320q40 0 43 -39q0 -18 -13.5 -31.5t-35.5 -13.5h-369z" />
<glyph unicode="&#xbe;" horiz-adv-x="919" d="M756 905q0 139 -181 139h-8q-20 0 -30.5 12.5t-10.5 28.5t12.5 28.5t30.5 12.5h43q64 0 105 30q76 56 76 128q0 49 -32 90t-88.5 41t-90 -9t-55 -27.5t-37.5 -18.5t-28.5 13t-12.5 30.5t16 30.5q80 63 194 63q107 0 167 -67q51 -57 51 -139.5t-41 -132.5t-95 -75 q101 -54 101 -180q0 -104 -74 -174q-80 -76 -209 -76q-138 0 -203 73q-14 15 -14 30.5t12.5 29t28.5 13.5t26.5 -11.5t34.5 -27.5q39 -25 126 -25t136.5 52.5t49.5 117.5zM866 551q11 -13 11 -29t-13.5 -29.5t-36.5 -13.5h-659q-22 0 -31.5 11.5t-9.5 28.5t13.5 30.5 t35.5 13.5h660q18 0 30 -12zM518 -14l-33 -172h58q16 0 28.5 -11.5t12.5 -28.5t-13.5 -30.5t-35.5 -13.5h-66l-27 -138q-9 -41 -43 -41q-16 0 -28.5 11.5t-12.5 29.5v11l27 127h-272q-18 0 -33 14q-10 14 -10 29q0 14 8 22l366 580q12 23 34 23q46 -2 46 -44q0 -12 -10 -28 l-326 -512h211l35 172q9 39 43 39q16 0 28.5 -10.5t12.5 -28.5z" />
<glyph unicode="&#xd0;" horiz-adv-x="1343" d="M1283.5 1175q19.5 -87 19.5 -151q0 -114 -21 -217l-49 -250q-42 -228 -161 -365q-165 -192 -472 -192h-375q-27 0 -45 16.5t-18 36.5t2 27l112 590h-151q-29 0 -44 14q-20 19 -20 46.5t20.5 47t55.5 19.5h164l121 628q12 70 76 70h346q252 0 368 -161q52 -72 71.5 -159z M1167 999q0 365 -336 365h-284l-109 -567h189q28 0 47 -19q14 -14 14 -41t-20.5 -47t-53.5 -20h-200l-105 -543h293q237 0 364 145q92 105 134 318l51 258q16 93 16 151z" />
<glyph unicode="&#xd7;" horiz-adv-x="860" d="M767.5 874.5q27.5 -2.5 42.5 -23t15 -45t-22 -40.5l-248 -217l152 -207q26 -43 -15 -84q-55 -39 -94 16l-139 191l-234 -203q-23 -20 -50.5 -19t-38.5 17q-19 28 -19 49t22 43l246 211l-154 213q-16 20 -12 49q8 20 30 36.5t47.5 11.5t41.5 -29l143 -197l236 207 q23 23 50.5 20.5z" />
<glyph unicode="&#xdd;" horiz-adv-x="1005" d="M745 1657q-26 -31 -53 -31t-42 16.5t-15 36.5t12 37l217 305q20 29 49.5 29t49.5 -18.5t20 -40.5t-14 -41zM1182 1415q-260 -426 -580 -878l-96 -490q-12 -65 -72 -65q-25 0 -43 15t-18 35q0 26 4 46l88 463q-151 470 -244 874q-6 18 -6 42t21.5 40t46.5 16q53 0 65 -53 q75 -341 209 -768q274 393 518 789q20 33 49 32.5t48.5 -17.5t19.5 -39t-10 -42z" />
<glyph unicode="&#xde;" horiz-adv-x="1167" d="M1149.5 922.5q21.5 -66.5 21.5 -118.5q0 -62 -10 -132l-8 -47q-33 -172 -158 -264.5t-331 -92.5h-359l-108 -565q-12 -63 -72 -63q-27 0 -45.5 16t-18.5 36.5t2 26.5l369 1932q6 31 26.5 48t46.5 17t44 -17.5t18 -45.5v-17l-94 -485h311q196 0 298 -111 q46 -51 67.5 -117.5zM1036 774q0 104 -61.5 177t-202.5 73h-323l-119 -631h332q303 0 356 250l8 41q10 62 10 90z" />
<glyph unicode="&#xf0;" horiz-adv-x="1087" d="M774 1294q262 -335 262 -741q0 -268 -144 -426q-131 -145 -343 -145q-195 0 -313 118q-119 119 -119 320q0 215 161 351q148 124 338 124q140 0 254 -70q-55 210 -200 396l-236 -160q-20 -16 -42.5 -12t-34 22t-5.5 42t27 38l217 149q-35 40 -90 93q-25 20 -24 45.5 t16.5 44t40 22.5t52.5 -19.5t56.5 -53t57.5 -58.5l172 119q20 14 42.5 10t33.5 -22t6 -41t-27 -39zM879.5 354q29.5 84 29.5 170t-6 146q-118 106 -287 106q-144 0 -252 -95q-118 -103 -118 -255.5t83 -236t220 -83.5q155 0 252 109q49 55 78.5 139z" />
<glyph unicode="&#xf7;" horiz-adv-x="1136" d="M780 905q0 -41 -28.5 -69.5t-69.5 -28.5t-69.5 28.5t-28.5 69.5t28.5 70t69.5 29t69.5 -29t28.5 -70zM930 618q61 0 61 -55q0 -29 -20.5 -48t-52.5 -19h-621q-49 0 -61 38q-3 11 -3 28.5t20.5 36.5t55.5 19h621zM643 209q0 -41 -29.5 -69.5t-70.5 -28.5t-69 28.5 t-28 69.5t28 69.5t69 28.5t70.5 -28.5t29.5 -69.5z" />
<glyph unicode="&#xfd;" horiz-adv-x="917" d="M639 1249q-25 -30 -52.5 -30t-43 16t-15.5 36.5t13 37.5l215 305q20 29 50 28.5t49 -18.5t19 -36q0 -30 -12 -46zM543 139q-150 -277 -273 -389q-137 -125 -307 -125q-33 0 -50 17.5t-17 46.5t20.5 46t58 18t80.5 12.5t86 38.5q91 59 178 188q-108 546 -157 940 q-2 10 -2 18v13q0 29 17.5 49t45 20t43 -13t19.5 -48q42 -330 129 -815l434 831q23 45 59 45q64 0 64 -55q0 -27 -17 -59z" />
<glyph unicode="&#xfe;" horiz-adv-x="968" d="M385 940q126 88 244 88q158 0 229.5 -84t71.5 -217q0 -84 -21 -180l-32 -158q-35 -189 -127 -287q-108 -118 -308 -118q-135 0 -229 69l-72 -372q-6 -29 -25.5 -45.5t-43 -16.5t-42 15.5t-18.5 35.5t2 25l340 1759q4 29 23.5 45.5t44.5 16.5t42 -15.5t17 -44.5v-16z M236 174q92 -74 188 -74t151.5 26t90.5 69q57 68 88 221l34 196q11 57 11 123t-41 119t-130.5 53t-152.5 -34.5t-119 -79.5z" />
<glyph unicode="&#x401;" horiz-adv-x="1093" d="M1127.5 1886.5q29.5 -28.5 29.5 -70.5t-29.5 -71t-70.5 -29t-71 29t-30 71t30 70.5t71 28.5t70.5 -28.5zM772 1886.5q29 -28.5 29 -70.5t-29 -71t-71 -29t-70.5 29t-28.5 71t28.5 70.5t70.5 28.5t71 -28.5zM1187 1480q19 -15 19 -45t-22.5 -49.5t-55.5 -19.5h-612 l-108 -557h544q66 0 66 -57q0 -29 -21.5 -49.5t-54.5 -20.5h-557l-109 -553h629q29 0 47.5 -15.5t18.5 -43.5q0 -29 -21.5 -49.5t-56.5 -20.5h-700q-27 0 -45.5 17.5t-18.5 36.5q0 35 8 61l252 1310q16 70 78 70h674q27 0 46 -15z" />
<glyph unicode="&#x402;" horiz-adv-x="1329" d="M678 842q137 102 287.5 102t216 -78t65.5 -202q0 -55 -16 -148l-53 -278q-52 -256 -289 -256h-152q-27 0 -43 16t-16 41t20.5 43t51.5 18h139q129 0 160 144l55 280q12 87 12 121q0 80 -38 129t-128 49q-162 0 -299 -133l-125 -643q-6 -31 -25.5 -48t-45 -17t-45 15 t-19.5 35q0 32 8 60l242 1270h-334q-29 0 -47 17.5t-18 45t22.5 48t57.5 20.5h815q27 0 46 -14.5t19 -44.5q0 -31 -21.5 -51.5t-56.5 -20.5h-344z" />
<glyph unicode="&#x403;" horiz-adv-x="1042" d="M817 1657q-26 -31 -53 -31t-42 16.5t-15 36.5t12 37l217 305q18 29 48 29t50.5 -18.5t20.5 -40.5t-15 -41zM1122 1493q29 0 46.5 -16.5t17.5 -44t-21.5 -48t-54.5 -20.5h-661l-254 -1317q-6 -33 -27 -49t-46.5 -16t-44 16t-18.5 32v23q0 6 4 17l261 1357q6 31 26.5 48.5 t46.5 17.5h725z" />
<glyph unicode="&#x404;" horiz-adv-x="1163" d="M629 -18q-443 0 -443 460q0 61 15 181l35 245q64 472 372 598q109 45 227.5 45t211 -25.5t163.5 -96.5q25 -25 25 -56t-18.5 -50t-47.5 -19t-43 13t-51 44q-75 63 -229 63q-205 0 -320.5 -120.5t-150.5 -374.5l-13 -88h496q25 0 44.5 -14.5t19.5 -44.5t-20.5 -49 t-55.5 -19h-506l-6 -64q-4 -45 -9.5 -86t-5.5 -78q0 -166 75 -253t247 -87q189 0 301 78q29 18 48.5 33.5t46 15.5t38.5 -16t12 -37q0 -32 -36 -63q-88 -66 -204 -100.5t-218 -34.5z" />
<glyph unicode="&#x405;" horiz-adv-x="1120" d="M1073 1454q41 -18 41 -62q0 -22 -17.5 -43.5t-38.5 -21.5t-54 15q-101 44 -207.5 44t-178 -21.5t-124.5 -58.5q-107 -74 -107 -200q0 -163 193 -250q55 -25 117.5 -49.5t126 -53t114.5 -72.5q113 -97 113 -269q0 -209 -168 -325q-159 -110 -420 -110q-176 0 -330 68 q-43 19 -43 52.5t18.5 54t40 20.5t55.5 -16q108 -52 263 -52q223 0 335.5 86t112.5 216q0 132 -119 208q-53 35 -118.5 59.5t-127.5 50.5t-114.5 55.5t-93.5 71.5q-90 92 -90 247q0 195 160 308q148 105 372 105q158 0 289 -57z" />
<glyph unicode="&#x406;" horiz-adv-x="489" d="M514 1496q18 -17 18 -34q0 -35 -4 -47l-264 -1368q-4 -33 -25.5 -49t-47 -16t-44 16t-18.5 36q0 26 4 46l264 1366q15 67 72 67q27 0 45 -17z" />
<glyph unicode="&#x407;" horiz-adv-x="485" d="M781.5 1886.5q29.5 -28.5 29.5 -70.5t-29.5 -71t-70.5 -29t-71 29t-30 71t30 70.5t71 28.5t70.5 -28.5zM426 1886.5q29 -28.5 29 -70.5t-29 -71t-71 -29t-70.5 29t-28.5 71t28.5 70.5t70.5 28.5t71 -28.5zM514 1496q18 -17 18 -36q0 -23 -4 -43l-264 -1370 q-4 -33 -25.5 -49t-47 -16t-44 16t-18.5 36q0 24 4 44l264 1368q15 67 72 67q27 0 45 -17z" />
<glyph unicode="&#x408;" horiz-adv-x="872" d="M914.5 1497q19.5 -16 19.5 -39.5t-6 -50.5l-172 -895q-51 -272 -188.5 -402t-393.5 -130q-170 0 -194 44q-9 17 -9 39.5t17.5 42t39 19.5t50 -6t111.5 -6t157 22.5t128 73.5q104 98 149 328l176 909q12 67 71 67q25 0 44.5 -16z" />
<glyph unicode="&#x409;" horiz-adv-x="2170" d="M1942 502q0 215 -314 215h-313l-115 -590h361q343 0 372 274l4 54q5 25 5 47zM1386 1493q25 0 43.5 -16.5t18.5 -35.5q0 -30 -4 -50l-107 -549h318q217 0 318.5 -93.5t101.5 -244.5q0 -28 -4 -62l-9 -57q-33 -277 -290 -357q-91 -28 -218 -28h-438q-25 0 -44 15.5 t-19 36.5q0 30 4 50l243 1262h-696l-174 -913q-65 -315 -236 -425q-69 -44 -165 -44h-29q-25 0 -45.5 15t-20.5 47t25 50.5t53 18.5h29q105 0 175 117q48 82 75 221l188 976q12 66 74 66h833z" />
<glyph unicode="&#x40a;" horiz-adv-x="2134" d="M2038 500q0 -24 -4 -58l-6 -57q-21 -174 -140 -275q-128 -110 -370 -110h-439q-27 0 -45 16.5t-18 35.5q0 28 4 48l121 617h-746l-129 -670q-12 -65 -73 -65q-25 0 -43.5 15t-18.5 37.5t4 43.5l262 1368q16 66 74 65q25 0 43 -16t18 -39.5t-6 -54.5l-106 -559h743 l117 604q12 65 72 65q25 0 44 -16t19 -39.5t-4 -40.5l-111 -573h318q219 0 319.5 -94t100.5 -248zM1905 500q0 217 -312 217h-315l-115 -590h363q266 0 338 169q22 50 30 105l7 45q4 20 4 54z" />
<glyph unicode="&#x40b;" horiz-adv-x="1314" d="M307 1362q-65 0 -65 59q0 29 21.5 50.5t55.5 21.5h818q29 0 49 -20q16 -16 16 -43t-21.5 -47.5t-56.5 -20.5h-346l-100 -520q138 102 287 102t214.5 -79t65.5 -203q0 -76 -16 -146l-92 -475q-8 -59 -68.5 -59t-60.5 53v11q0 7 4 20l90 462q14 68 14 132.5t-38 113.5 t-128 49q-154 0 -301 -133l-123 -645q-16 -63 -73 -63q-25 0 -44.5 15t-19.5 35.5t4 37.5l248 1292h-334z" />
<glyph unicode="&#x40c;" horiz-adv-x="1226" d="M918 1657q-26 -31 -53.5 -31t-42.5 16.5t-15 36.5t12 37l215 305q20 29 50.5 29t49.5 -18.5t19 -35.5q0 -30 -12 -46zM535 1454q0 -10 -5 -31l-118 -612h247l603 672q28 28 57 28q65 0 65 -59q0 -23 -22 -49l-600 -655q196 -346 336 -674q6 -16 6 -35t-20.5 -38 t-58.5 -19t-54 45q-132 313 -328 655h-254l-125 -635q-4 -31 -24.5 -48t-46 -17t-45 15t-19.5 35.5t4 37.5l264 1376q12 65 75 65t63 -57z" />
<glyph unicode="&#x40e;" horiz-adv-x="1040" d="M1020 1925q-128 -194 -303 -194q-179 0 -275 196q-6 12 -6 33t19.5 36t46.5 15t41 -29q71 -139 182 -139q108 0 203 139q18 29 45 29t43 -14.5t16 -34t-12 -37.5zM141 1393q-8 28 -8 54t19.5 44t52.5 18q51 0 63 -55l226 -973q174 266 424 738q69 129 131 243 q25 47 63 47q72 0 72 -65q0 -25 -115 -239t-195 -353q-146 -257 -309 -510q-119 -180 -238.5 -271t-271.5 -91h-39q-27 0 -45 16t-18 45t19.5 49.5t56.5 20.5h37q88 0 162.5 47t166.5 170z" />
<glyph unicode="&#x40f;" horiz-adv-x="1353" d="M1395 1450q0 -18 -4 -35l-258 -1349q-6 -33 -27 -49.5t-47 -16.5h-367l-63 -334q-6 -29 -24.5 -50.5t-47.5 -21.5t-47 16.5t-18 37.5q0 30 6 51l57 301h-362q-27 0 -44.5 15.5t-17.5 35.5q0 23 6 53l256 1340q14 68 78 67q25 0 42 -16t17 -39.5t-6 -50.5l-248 -1278h730 l256 1319q12 65 72.5 65t60.5 -61z" />
<glyph unicode="&#x410;" horiz-adv-x="1134" d="M1053 61q4 -41 -16.5 -61t-53.5 -20q-57 0 -63 57q-9 134 -33 328h-617q-37 -82 -73.5 -165t-73.5 -167q-25 -53 -65 -53t-58 24.5t-2 65.5q278 655 674 1364q44 75 100 75q29 0 47.5 -15t28.5 -62q151 -690 205 -1371zM874 492q-58 419 -137 796q-215 -389 -407 -796 h544z" />
<glyph unicode="&#x411;" horiz-adv-x="1247" d="M1186 1493q29 0 46 -16.5t17 -44t-21.5 -48t-56.5 -20.5h-655l-102 -524h317q219 0 319.5 -93.5t100.5 -246.5q0 -28 -4 -58l-6 -57q-21 -174 -139 -275q-129 -110 -371 -110h-438q-27 0 -45.5 16.5t-18.5 38t2 32.5q4 22 258 1340q17 66 72 66h725zM1018 498 q0 219 -311 219h-316l-115 -590h363q264 0 342 169q23 50 29 107l6 54q2 10 2 20v21z" />
<glyph unicode="&#x412;" horiz-adv-x="1251" d="M961 764q192 -69 192 -275q0 -25 -4 -55l-6 -53q-34 -268 -296 -351q-93 -30 -220 -30h-434q-27 0 -45.5 16.5t-18.5 36.5q0 23 6 53l254 1319q16 70 78 70h338q217 0 323 -99q95 -88 95 -229q0 -37 -4 -73l-11 -58q-31 -201 -247 -272zM1081 1090q6 21 6 62.5t-13 79.5 t-46 68q-73 68 -229 68h-283l-106 -551h292q232 0 326 123q33 43 45 107zM1020 485q0 207 -315 207h-318l-111 -565h359q263 0 345 163q24 48 32 103l6 51q2 10 2 20v21z" />
<glyph unicode="&#x413;" horiz-adv-x="1042" d="M1122 1493q29 0 46.5 -16.5t17.5 -44t-21.5 -48t-54.5 -20.5h-661l-254 -1317q-6 -33 -27 -49t-46.5 -16t-44 16t-18.5 32v23q0 6 4 17l261 1357q6 31 26.5 48.5t46.5 17.5h725z" />
<glyph unicode="&#x414;" horiz-adv-x="1499" d="M326 129h813l237 1237h-682l-149 -786q-35 -176 -87 -287t-132 -164zM1389 -332q-6 -33 -28 -50t-48 -17q-27 0 -44.5 16t-17.5 35q0 29 4 49l60 299h-1231l-66 -336q-16 -63 -71 -63q-25 0 -44.5 15t-19.5 34q0 23 6 53l68 360q6 31 26.5 48.5t47.5 17.5 q160 0 245.5 107.5t126.5 324.5l168 866q6 33 26.5 49.5t45.5 16.5h817q27 0 45.5 -16.5t18.5 -40.5t-4 -45l-244 -1262h125q29 0 45 -18.5t16 -35.5q0 -28 -4 -48z" />
<glyph unicode="&#x415;" horiz-adv-x="1091" d="M1187 1480q19 -15 19 -45t-22.5 -49.5t-55.5 -19.5h-612l-108 -557h544q66 0 66 -57q0 -29 -21.5 -49.5t-54.5 -20.5h-557l-109 -553h629q29 0 47.5 -15.5t18.5 -43.5q0 -29 -21.5 -49.5t-56.5 -20.5h-700q-27 0 -45.5 17.5t-18.5 36.5q0 35 8 61l252 1310q16 70 78 70 h674q27 0 46 -15z" />
<glyph unicode="&#x416;" horiz-adv-x="2048" d="M147 -18q-67 0 -67 61q0 29 26 57q272 304 635 660l-374 641q-15 37 -15 56.5t16.5 36.5t43.5 17q42 0 63 -38l375 -662h240l120 635q16 66 74 65q25 0 44.5 -16t19.5 -35q0 -28 -5 -45l-116 -604h248l602 672q28 28 57 28t46.5 -17t17.5 -41t-21 -48l-602 -657 q197 -342 336 -674q6 -16 6 -35t-19.5 -38t-58.5 -19t-53 45q-139 326 -330 655h-254l-123 -635q-4 -31 -25.5 -48t-47 -17t-45 16t-19.5 35.5t4 36.5l117 612h-219q-273 -270 -637 -670q-23 -31 -60 -30z" />
<glyph unicode="&#x417;" horiz-adv-x="1040" d="M745 760q205 -86 205 -330q0 -185 -132 -312q-139 -136 -376 -136q-86 0 -158.5 14t-121.5 48q-105 72 -105 116q0 27 17.5 45t44.5 18t45 -20.5t64 -48.5q77 -48 193.5 -48t186.5 28t116 74q93 93 93 226q0 151 -111 216q-86 52 -233 52h-12q-33 0 -49.5 18.5 t-16.5 43.5t18.5 44t49.5 19h78q127 0 228 77q118 90 118 229q0 166 -145 231q-50 22 -122 22q-160 0 -262 -88q-16 -14 -42 -14t-44 19.5t-18 45.5t25 48q84 70 171 92t183 22t170 -32.5t122 -84.5q93 -102 93 -253q0 -208 -172 -327q-49 -34 -101 -54z" />
<glyph unicode="&#x418;" horiz-adv-x="1388" d="M1292 1446q12 65 72 65q25 0 44 -16t19 -35.5t-4 -36.5l-264 -1378q-16 -63 -72 -63q-27 0 -45 16t-18 37.5t4 42.5l201 1034l-940 -928l-27 -139q-4 -31 -24.5 -47t-46.5 -16t-44 16t-18 39.5t4 40.5l264 1368q12 65 72 65q25 0 43 -16t18 -33v-24q0 -8 -2 -15 l-200 -1042l938 928z" />
<glyph unicode="&#x419;" horiz-adv-x="1388" d="M1307 1925q-126 -194 -303 -194q-181 0 -275 196q-6 12 -6 32t19.5 36t46 16t40.5 -29q69 -139 183 -139q111 0 202 139q18 29 45.5 29t43.5 -15.5t16 -36t-12 -34.5zM1292 1446q12 65 72 65q25 0 44 -16t19 -35.5t-4 -36.5l-264 -1378q-16 -63 -72 -63q-27 0 -45 16 t-18 37.5t4 42.5l201 1034l-940 -928l-27 -139q-4 -31 -24.5 -47t-46.5 -16t-44 16t-18 39.5t4 40.5l264 1368q12 65 72 65q25 0 43 -16t18 -33v-24q0 -8 -2 -15l-200 -1042l938 928z" />
<glyph unicode="&#x41a;" horiz-adv-x="1234" d="M762 748q196 -346 336 -674q6 -16 6 -35t-20.5 -38t-58.5 -19t-54 45q-132 313 -328 655h-254l-125 -635q-10 -66 -71 -65q-25 0 -44.5 15t-19.5 35.5t4 37.5l264 1376q12 65 76 65q27 0 44.5 -15t17.5 -37.5t-5 -43.5l-118 -604h247l603 672q28 28 57 28q65 0 65 -59 q0 -23 -22 -49z" />
<glyph unicode="&#x41b;" horiz-adv-x="1400" d="M1180 47q-12 -67 -76 -67q-27 0 -43.5 16t-16.5 34v24q0 7 3 14l249 1294h-696l-174 -913q-65 -315 -236 -425q-69 -44 -165 -44h-31q-25 0 -44.5 15t-19.5 47t23.5 50.5t52.5 18.5h31q105 0 175 117q44 75 75 221l188 976q4 33 25.5 49.5t46.5 16.5h833q25 0 43.5 -16.5 t18.5 -33.5q0 -34 -4 -50z" />
<glyph unicode="&#x41c;" horiz-adv-x="1572" d="M1598.5 1497q17.5 -16 17.5 -35q0 -27 -4 -43l-266 -1374q-8 -63 -70 -63q-23 0 -41 15t-18 35q0 32 4 52l217 1120l-596 -921q-23 -37 -65 -37t-54 45l-240 915l-223 -1161q-12 -63 -70 -63q-25 0 -43 15t-18 35q0 28 4 48l266 1368q11 65 68 65t74 -57l266 -1022 l663 1032q29 47 82 47q29 0 46.5 -16z" />
<glyph unicode="&#x41d;" horiz-adv-x="1335" d="M1358 1496q18 -17 18 -36q0 -23 -4 -43l-264 -1370q-12 -65 -72 -65q-27 0 -45 16t-18 36q0 24 4 44l113 594h-705l-121 -625q-4 -33 -25.5 -49t-47 -16t-44 16t-18.5 36q0 24 4 44l264 1368q15 67 72 67q27 0 45 -17t18 -36q0 -23 -4 -43l-118 -622h704l127 651 q11 67 72 67q27 0 45 -17z" />
<glyph unicode="&#x41e;" horiz-adv-x="1245" d="M1212.5 1226q20.5 -83 20.5 -152q0 -115 -19 -206l-47 -264q-48 -277 -161 -426q-148 -196 -426 -196q-208 0 -307 132q-87 117 -87 322q0 102 21 213l41 228q49 280 160 433q149 203 432 203q203 0 305 -139q47 -65 67.5 -148zM324 438q0 -327 258 -327q304 0 403 313 q29 92 47 194l49 279q15 78 15 153t-15.5 135t-47.5 104q-69 95 -191.5 95t-201.5 -43t-130 -115q-87 -122 -129 -366l-41 -239q-16 -98 -16 -183z" />
<glyph unicode="&#x41f;" horiz-adv-x="1357" d="M1333 1491q25 0 44.5 -15.5t19.5 -37.5t-4 -39l-260 -1352q-12 -66 -78 -65q-25 0 -41.5 15t-16.5 38.5t4 40.5l246 1288h-727l-256 -1317q-4 -31 -25.5 -48t-47 -17t-44 16t-18.5 34v26q0 8 4 16l260 1351q6 33 26.5 49.5t45.5 16.5h868z" />
<glyph unicode="&#x420;" horiz-adv-x="1179" d="M1241 1132q0 -65 -12 -122l-8 -45q-35 -172 -159 -264.5t-331 -92.5h-358l-109 -561q-4 -33 -25.5 -50t-47 -17t-44 17t-18.5 38.5t4 42.5l260 1349q6 31 26.5 48.5t45.5 17.5h387q195 0 299 -111q90 -97 90 -250zM1096 1026q8 46 8 93.5t-14.5 94t-47.5 80.5 q-70 72 -202 72h-320l-123 -633h332q306 0 356 252z" />
<glyph unicode="&#x421;" horiz-adv-x="1089" d="M322 426q0 -320 305 -320q116 0 237 68q35 20 54.5 34.5t44 14.5t41 -20.5t16.5 -44.5q0 -41 -75 -86q-150 -90 -324 -90q-229 0 -339 130q-96 116 -96 318q0 94 19 193l53 290q58 301 192 442q151 158 424 158q120 0 193.5 -37t91 -57.5t17.5 -43t-18.5 -42.5t-42 -20 t-37.5 10q-89 66 -209 66t-202.5 -40t-138.5 -111q-93 -119 -141 -366l-49 -274q-16 -94 -16 -172z" />
<glyph unicode="&#x422;" horiz-adv-x="1132" d="M516 -18q-63 0 -63 61q0 13 8 53l241 1264h-395q-31 0 -48 17.5t-17 46t21.5 49t55.5 20.5h934q31 0 47.5 -17t16.5 -46t-21.5 -49.5t-56.5 -20.5h-397l-254 -1313q-14 -66 -72 -65z" />
<glyph unicode="&#x423;" horiz-adv-x="1040" d="M141 1393q-8 28 -8 54t19.5 44t52.5 18q51 0 63 -55l226 -973q174 266 424 738q69 129 131 243q25 47 63 47q72 0 72 -65q0 -25 -115 -239t-195 -353q-146 -257 -309 -510q-119 -180 -238.5 -271t-271.5 -91h-39q-27 0 -45 16t-18 45t19.5 49.5t56.5 20.5h37 q88 0 162.5 47t166.5 170z" />
<glyph unicode="&#x424;" horiz-adv-x="1429" d="M617.5 -2q-19.5 16 -19.5 41.5t25 138.5q-206 4 -324 117q-107 103 -111 250q-6 61 17 178l22 125q52 321 341 428q110 41 272 41l26 131q12 65 72 65q27 0 45 -16t18 -44t-22 -136q205 -4 323 -117q155 -148 101 -412l-27 -139q-40 -203 -154 -315q-158 -152 -462 -156 l-27 -131q-6 -31 -25.5 -48t-45 -17t-45 16zM782 303q211 2 320.5 91t146.5 282l23 119q16 68 10 139q-6 113 -89 187.5t-237 74.5zM336 723q-17 -72 -17 -140.5t23 -117.5t65 -86q91 -80 238 -80l172 895q-321 -5 -415 -222q-29 -65 -44 -141z" />
<glyph unicode="&#x425;" horiz-adv-x="1075" d="M1204 1405q-177 -246 -504 -631q78 -174 157 -347t149 -351q14 -41 -9.5 -67.5t-48.5 -26.5q-50 0 -69 43q-146 362 -271 637q-393 -481 -524 -654q-19 -26 -45 -26t-41.5 10t-23.5 26q-18 38 10 72q139 182 283.5 355t285.5 343q-210 467 -277 631q-16 41 7.5 67.5 t62.5 26.5t57 -45q57 -141 119 -283.5t123 -283.5q294 351 459 584q20 29 44.5 28.5t40 -10.5t23.5 -25q20 -37 -8 -73z" />
<glyph unicode="&#x426;" horiz-adv-x="1357" d="M469 1509q59 0 59 -63q0 -27 -6 -45l-246 -1276h730l256 1319q12 65 71 65q25 0 43.5 -16t18.5 -42t-4 -42l-246 -1286h10q23 0 42.5 -15.5t19.5 -35.5q0 -22 -7 -60l-69 -350q-12 -66 -72 -65q-27 0 -45 16t-18 33q0 21 4 43l59 309h-876q-27 0 -44.5 16t-17.5 34 q0 34 4 54l258 1340q11 67 76 67z" />
<glyph unicode="&#x427;" horiz-adv-x="1236" d="M989 643q-187 -59 -362 -59q-365 0 -365 325q0 80 21 176l69 361q16 68 74 67q25 0 44 -16t19 -38.5t-4 -43.5l-65 -342q-19 -83 -19 -143q0 -111 61.5 -166t173.5 -55q194 0 378 59l131 678q12 67 72 67q25 0 44 -16t19 -37q0 -23 -6 -47l-262 -1366q-4 -31 -25.5 -47 t-47.5 -16t-44 16t-18 36.5t6 51.5z" />
<glyph unicode="&#x428;" horiz-adv-x="2027" d="M195 0q-29 0 -46.5 16.5t-17.5 35.5t4 36l260 1354q12 69 76 69q27 0 43 -17t16 -41.5t-4 -41.5l-247 -1286h630l252 1317q16 69 78 69q25 0 42 -17t17 -38.5t-4 -42.5l-247 -1288h630l252 1321q16 66 74 65q25 0 44 -15t19 -37.5t-4 -43.5l-260 -1349q-12 -66 -73 -66 h-1534z" />
<glyph unicode="&#x429;" horiz-adv-x="2025" d="M195 0q-64 0 -64 59q0 8 4 29l260 1354q8 69 76 69q25 0 42 -17t17 -36q0 -37 -4 -49l-247 -1284h630l252 1317q12 69 78 69q25 0 42 -17t17 -34q0 -35 -4 -47l-250 -1288h633l252 1319q12 67 74 67q25 0 43 -16t18 -35q0 -27 -4 -47l-248 -1288h15q57 0 57 -59 q0 -14 -4 -31l-70 -371q-6 -31 -26.5 -48t-46 -17t-45 14t-19.5 36.5t6 45.5l58 305h-1542z" />
<glyph unicode="&#x42a;" horiz-adv-x="1527" d="M1305 498q0 221 -312 221h-315l-113 -590h361q266 0 342 167q22 50 28 107l4 33q5 30 5 62zM229 1362q-29 0 -47 19t-18 46t22.5 46.5t55.5 19.5h508q27 0 45 -17.5t18 -33.5q0 -31 -4 -51l-107 -549h316q221 0 320.5 -94.5t99.5 -247.5q0 -24 -4 -58l-7 -55 q-33 -278 -291 -359q-92 -28 -218 -28h-437q-27 0 -45 16.5t-18 36.5q0 40 8 62l240 1247h-437z" />
<glyph unicode="&#x42b;" horiz-adv-x="1632" d="M1653 1496q18 -17 18 -34q0 -35 -4 -47l-264 -1368q-4 -33 -25.5 -49t-47.5 -16t-44 16t-18 36q0 26 4 46l264 1366q15 67 72 67q27 0 45 -17zM1016 498q0 221 -311 221h-316l-115 -592h363q337 0 371 276l6 52q2 10 2 21v22zM393 1446q12 65 72 65q27 0 45 -15t18 -34 q0 -27 -4 -47l-110 -573h315q318 0 395 -200q25 -64 25 -110v-60q0 -13 -2 -30l-6 -57q-33 -272 -293 -355q-92 -30 -219 -30h-436q-27 0 -45.5 17.5t-18.5 40t4 42.5z" />
<glyph unicode="&#x42c;" horiz-adv-x="1239" d="M1016 498q0 221 -311 221h-316l-115 -592h363q337 0 371 276l6 52q2 10 2 21v22zM393 1446q12 65 72 65q27 0 45 -15t18 -34q0 -27 -4 -47l-110 -573h315q318 0 395 -200q25 -64 25 -110v-60q0 -13 -2 -30l-6 -57q-33 -272 -293 -355q-92 -30 -219 -30h-436 q-27 0 -45.5 17.5t-18.5 40t4 42.5z" />
<glyph unicode="&#x42d;" horiz-adv-x="1163" d="M711 1511q442 0 442 -462q0 -65 -14 -177l-37 -247q-64 -465 -394 -597q-116 -46 -243 -46q-192 0 -297 59q-39 23 -72 56.5t-33 62.5t23 48t48 19t46 -18.5t54 -42.5q87 -60 229 -60q211 0 336 124t166 382l14 86h-498q-29 0 -45 17.5t-16 44.5t20.5 47t55.5 20h501 q21 151 21 224t-16.5 135.5t-54.5 107.5q-78 92 -249 92q-150 0 -246 -62q-38 -24 -62.5 -43t-52.5 -19t-43 15t-15 40q0 52 129 125q131 69 303 69z" />
<glyph unicode="&#x42e;" horiz-adv-x="1810" d="M891 438q0 -329 258 -329q304 0 405 313q29 92 45 196l48 275q14 78 14 154t-15.5 135t-45.5 103q-66 95 -190 95t-204 -42t-131 -114q-86 -122 -125 -366l-43 -240q-16 -75 -16 -180zM193 -18q-64 0 -64 63q0 16 6 41l262 1358q4 31 25.5 48t47.5 17t44 -17t18 -36.5 t-4 -36.5l-120 -626h395l14 81q49 285 157 433q148 202 433 202q200 0 303 -139q88 -118 88 -321q0 -106 -18 -183l-47 -264q-48 -273 -161 -424q-149 -196 -427 -196q-202 0 -303 132q-88 116 -88 322q0 85 18 191l8 43h-395l-121 -625q-4 -29 -25.5 -46t-45.5 -17z" />
<glyph unicode="&#x42f;" horiz-adv-x="1226" d="M981 635h-311q-248 -316 -441 -610q-28 -43 -66 -43q-70 0 -75 57q0 18 16 41q177 266 420 577q-125 26 -198 125q-62 85 -62 199q0 23 4 51l15 84q25 169 151 268q138 109 383 109h389q25 0 43.5 -15.5t18.5 -33.5q0 -37 -4 -49l-258 -1348q-6 -31 -27 -48t-46.5 -17 t-44 15t-18.5 39.5t4 41.5zM1122 1366h-329q-259 0 -347 -160q-24 -45 -30 -90l-13 -88q-4 -20 -4 -51t15.5 -72t49.5 -73q75 -72 228 -72h314z" />
<glyph unicode="&#x430;" horiz-adv-x="1019" d="M403.5 996.5q73.5 35.5 199.5 35.5t235 -86l8 43q7 43 59 43q25 0 43.5 -15t18.5 -44l-142 -742q-14 -68 -5 -93t39 -45.5t24 -50.5q-11 -54 -72 -54q-62 0 -103 63q-6 10 -10 27q-137 -90 -278.5 -90t-218 87t-76.5 232q0 57 16 150l25 143q33 197 116 300 q48 61 121.5 96.5zM254 324q0 -218 197 -218q107 0 239 97l119 620q-88 92 -217 92q-204 0 -268 -203q-19 -59 -29 -122l-33 -178q-8 -50 -8 -88z" />
<glyph unicode="&#x431;" horiz-adv-x="1050" d="M406 926q106 102 258 102q163 0 250 -91q77 -81 77 -226q0 -37 -10 -109l-37 -201q-35 -188 -120 -285q-116 -132 -339 -132q-167 0 -256 95q-77 83 -77 230q0 61 10 109l84 444q34 195 186 302q66 46 141.5 78t144 65t110.5 72.5t57 105.5l16 80q4 29 23.5 44t43.5 15 t42 -15.5t18 -33.5q0 -46 -14 -88q-23 -106 -80 -168t-133 -102.5t-158 -74.5q-190 -79 -237 -216zM281 324q0 -98 53 -160t172 -62q255 0 309 299l39 203q10 47 10 86q0 98 -54 157.5t-182 59.5t-201 -81t-99 -216l-39 -200q-8 -41 -8 -86z" />
<glyph unicode="&#x432;" horiz-adv-x="946" d="M707 520q120 -57 120 -184q0 -21 -4 -49l-2 -25q-12 -115 -102 -188.5t-262 -73.5h-295q-25 0 -42.5 14.5t-17.5 36.5t7 51l163 856q6 29 25.5 45.5t44.5 16.5h238q158 0 225 -66.5t67 -160.5q0 -32 -4 -54l-4 -26q-22 -140 -157 -193zM750 782q0 125 -179 125h-178 l-65 -338h180q92 0 153.5 31t77.5 109l6 30q4 20 5 43zM305 461l-65 -346h223q216 0 235 161l4 31q3 12 3 29q0 72 -51.5 98.5t-139.5 26.5h-209z" />
<glyph unicode="&#x433;" horiz-adv-x="854" d="M393 901l-166 -852q-4 -29 -23.5 -45t-43 -16t-42 15t-18.5 31v28q0 10 4 16l170 883q4 29 23.5 44t44.5 15h520q23 0 39.5 -13.5t16.5 -42t-22 -46t-50 -17.5h-453z" />
<glyph unicode="&#x434;" horiz-adv-x="1075" d="M748 121l151 780h-416l-98 -518q-14 -78 -36.5 -146.5t-72.5 -115.5h472zM76 121q107 0 158 167q14 44 20 83l113 587q4 29 23.5 45.5t43.5 16.5h541q25 0 43 -15.5t18 -32.5q0 -22 -4 -42l-155 -809h92q25 0 41 -15.5t16 -39t-6 -48.5l-43 -229q-12 -59 -70 -59 q-25 0 -42 15t-17 35q0 28 8 60l31 160h-817l-39 -211q-4 -29 -23.5 -44t-44.5 -15t-42 15t-17 41t6 54l43 219q6 29 25.5 45.5t41.5 16.5h56z" />
<glyph unicode="&#x435;" horiz-adv-x="962" d="M914.5 827.5q17.5 -61.5 17.5 -111.5q0 -78 -8 -134l-11 -60q-9 -53 -61 -53h-578l-10 -49q-4 -40 -4 -76q0 -106 56.5 -173t162.5 -67q105 0 221 46q21 8 41.5 8t35 -16.5t14.5 -49.5t-55 -54q-134 -50 -245.5 -50t-175 28.5t-103.5 77.5q-79 97 -79 254q0 53 8 101 l27 161q41 290 266 386q78 34 173 34t154.5 -25.5t97.5 -70.5t55.5 -106.5zM797 580q10 68 10 122q0 220 -193 220q-143 0 -217.5 -86t-99.5 -224l-6 -32h506z" />
<glyph unicode="&#x436;" horiz-adv-x="1437" d="M1436 1028q55 0 55 -55q0 -29 -23 -51l-409 -416q127 -197 189.5 -312.5t65.5 -127t3 -31t-17.5 -36.5t-45.5 -17q-41 0 -60 41q-106 207 -242 421h-131l-76 -399q-6 -31 -25.5 -47t-43 -16t-42 16t-18.5 37.5t7 44.5l69 364h-108q-209 -207 -412 -430q-27 -33 -62 -32.5 t-50 18.5t-15 40t18 44q127 141 414 428l-246 418q-12 16 -11 41q2 57 63 57q37 0 55 -39l242 -424h137l76 400q6 29 25.5 45t43 16t41 -15.5t17.5 -35.5t-5 -41l-71 -369h121l415 434q21 29 56 29z" />
<glyph unicode="&#x437;" horiz-adv-x="757" d="M547 514q119 -68 119 -221q0 -127 -92 -217q-96 -94 -259 -94q-129 0 -206 51q-64 41 -64 71t15.5 47t39 17t39 -18.5t50.5 -35.5q54 -26 119.5 -26t110 18.5t73.5 47.5q59 59 59 143q0 91 -67 135q-48 33 -115 33h-45q-29 0 -41.5 16.5t-12.5 38t16.5 36.5t41.5 15h75 q71 0 127 47q68 55 68 144q0 106 -91 144q-32 14 -77 14q-95 0 -172 -58q-12 -10 -32 -10t-35 16.5t-15 35.5q0 27 37 57q92 67 225 67t208 -82q65 -71 65 -173.5t-48.5 -165t-115.5 -93.5z" />
<glyph unicode="&#x438;" horiz-adv-x="1077" d="M922 963q6 31 25.5 46t43 15t42 -15.5t18.5 -35.5t-4 -41l-173 -889q-6 -29 -25.5 -45t-43 -16t-40.5 14t-17 32q0 24 4 46l118 624l-624 -573l-19 -82q-4 -29 -23.5 -45t-43 -16t-42 15t-18.5 33q0 37 9 62l167 871q12 61 68 61q25 0 42 -15.5t17 -32.5q0 -34 -4 -54 l-118 -613l626 574z" />
<glyph unicode="&#x439;" horiz-adv-x="1083" d="M1065 1450q-129 -195 -303 -195q-178 0 -275 197q-6 12 -6 33t19.5 36t46.5 15t41 -29q71 -139 182 -139t203 139q18 29 45 29t43 -14.5t16 -34t-12 -37.5zM922 963q6 31 25.5 46t43 15t42 -15.5t18.5 -35.5t-4 -41l-173 -889q-6 -29 -25.5 -45t-43 -16t-40.5 14t-17 32 q0 24 4 46l118 624l-624 -573l-19 -82q-4 -29 -23.5 -45t-43 -16t-42 15t-18.5 33q0 37 9 62l167 871q12 61 68 61q25 0 42 -15.5t17 -32.5q0 -34 -4 -54l-118 -613l626 574z" />
<glyph unicode="&#x43a;" horiz-adv-x="903" d="M922 1028q53 0 53 -53q0 -30 -25 -53l-407 -416q134 -207 248 -418q10 -20 10 -46t-17.5 -42t-44.5 -16q-41 0 -63 41q-117 224 -242 421h-127l-78 -401q-4 -29 -23.5 -45t-45.5 -16q-27 0 -42.5 15t-15.5 33q0 34 4 54l170 879q6 29 26 45t45.5 16t40.5 -15.5t15 -35.5 t-4 -41l-69 -369h119l413 434q25 29 60 29z" />
<glyph unicode="&#x43b;" horiz-adv-x="1064" d="M328 961q4 29 23.5 44t43.5 15h584q23 0 41 -15.5t18 -32.5q0 -22 -4 -42l-170 -883q-4 -29 -23.5 -45t-43.5 -16q-25 0 -43.5 15t-18.5 33q0 22 6 52l158 815h-455l-106 -555q-29 -157 -76 -228t-99 -102.5t-130 -31.5h-23q-23 0 -42 14t-19 46t21.5 48.5t47.5 16.5h23 q107 0 151 161q11 43 19 82z" />
<glyph unicode="&#x43c;" horiz-adv-x="1175" d="M217 37q-10 -55 -63.5 -55t-53.5 53q0 13 4 35l175 899q10 57 69 57q39 0 51 -43l181 -682l458 694q18 31 51.5 31t46.5 -16.5t13 -35.5t-4 -40l-172 -897q-12 -55 -65.5 -55t-53.5 53q0 17 4 39l127 655l-375 -571q-23 -33 -52.5 -33t-39.5 14.5t-16 36.5l-150 557z" />
<glyph unicode="&#x43d;" horiz-adv-x="1015" d="M969 1016q18 -14 18 -34q0 -41 -6 -56l-170 -877q-4 -29 -23.5 -45t-43.5 -16t-42 15t-18 31q0 34 4 46l78 399h-455l-84 -430q-4 -29 -23.5 -45t-43 -16t-42 15t-18.5 31q0 34 4 46l172 891q4 29 23.5 44t43.5 15t42 -14.5t18 -33.5q0 -41 -6 -56l-61 -328h452l72 373 q4 29 23.5 44t43.5 15t42 -14z" />
<glyph unicode="&#x43e;" horiz-adv-x="995" d="M928.5 822q17.5 -61 17.5 -118t-10 -114l-45 -223q-48 -266 -258 -349q-78 -30 -176 -30t-158.5 26.5t-99.5 72.5q-72 85 -72 230q0 61 12 127l39 211q50 262 260 345q78 30 176.5 30t159 -27.5t99 -73.5t56 -107zM807 602q10 47 10 90t-11 83t-34 69q-52 65 -143 65 t-144 -21.5t-90 -57.5q-68 -67 -90 -195l-39 -205q-10 -68 -10 -102q0 -96 44 -157.5t157 -61.5q203 0 273 167q22 50 34 109z" />
<glyph unicode="&#x43f;" horiz-adv-x="1015" d="M276 961q4 29 23.5 44t44.5 15h584q23 0 41 -15.5t18 -34.5t-4 -40l-172 -887q-4 -29 -23.5 -45t-43.5 -16t-42 15t-18 33q0 22 4 44l160 827h-453l-168 -858q-4 -29 -23.5 -45t-43.5 -16q-25 0 -42.5 15t-17.5 31v25q0 8 4 21z" />
<glyph unicode="&#x440;" horiz-adv-x="1040" d="M393 926q136 104 285.5 104t221 -82t71.5 -217q0 -86 -23 -180l-33 -158q-35 -190 -125 -287q-109 -118 -307 -118q-126 0 -231 67l-72 -368q-4 -29 -23.5 -45.5t-43 -16.5t-42 14.5t-18.5 32.5q0 25 4 45l205 1065q8 36 8 66.5t-9 45.5t-30 30q-27 14 -26 43q0 65 74 65 q35 0 69.5 -27.5t44.5 -78.5zM276 178q87 -74 185 -74t153.5 26t91.5 70q56 70 87 222l36 194q9 44 9 105q0 190 -189 190q-72 0 -135 -34.5t-121 -79.5q0 -20 -12 -68z" />
<glyph unicode="&#x441;" horiz-adv-x="847" d="M262 356q0 -250 244 -250q78 0 125 13.5t66.5 26t38.5 12.5t37 -11.5t18 -36.5q0 -43 -61 -74q-98 -48 -258 -48t-248.5 96t-88.5 264q0 63 6 96l25 140q46 311 278 412q80 34 166 34q205 0 272 -70q13 -13 13 -39t-18.5 -41.5t-38 -15.5t-27.5 4t-19 10q-41 19 -65 24 q-54 11 -104 11q-139 0 -223.5 -96t-108.5 -250l-23 -141q-6 -35 -6 -70z" />
<glyph unicode="&#x442;" horiz-adv-x="722" d="M817 1020q27 0 43 -16q14 -14 14 -39t-19 -43.5t-50 -18.5h-266l-164 -860q-8 -29 -27.5 -45t-43.5 -16t-42 14t-18 31.5t4 38.5l162 837h-256q-42 0 -56 38q-4 9 -4 26.5t19.5 35t50.5 17.5h653z" />
<glyph unicode="&#x443;" horiz-adv-x="890" d="M543 139q-150 -276 -271 -387q-135 -123 -307 -127q-35 -2 -54.5 17.5t-14.5 47.5q9 60 62.5 62t96.5 13.5t86 38.5q91 59 178 188q-122 615 -159 958q-4 37 15.5 59.5t47 22.5t43 -13t19.5 -48q46 -350 129 -815l434 831q23 45 66.5 45t53 -37t-13.5 -77z" />
<glyph unicode="&#x444;" horiz-adv-x="1581" d="M860 324q-2 -96 40 -159t128 -63t135 21.5t83 58.5q64 69 85 197l43 219q10 47 10 91t-10 84t-32 69q-50 65 -133 65t-132 -21.5t-83 -59.5q-55 -63 -85 -195l-39 -205q-10 -57 -10 -102zM258 324q0 -92 42 -156t128 -64t135 21.5t83 58.5q63 68 85 195l41 207 q4 26 10 102q0 94 -41 156.5t-145 62.5q-128 0 -202 -79q-53 -58 -85 -197l-39 -199q-12 -69 -12 -108zM672 63q-94 -81 -240 -81q-151 0 -233 97q-70 83 -70 224q0 38 12 119l43 227q49 267 245 349q73 30 171 30q165 0 234 -121l57 297q4 29 23.5 45.5t43 16.5t42 -15.5 t18.5 -34.5q0 -41 -6 -59l-41 -211q86 82 239 82q154 0 233 -97q68 -83 68 -224q0 -41 -12 -119l-41 -228q-47 -265 -244 -348q-73 -30 -174 -30q-161 0 -231 120l-82 -421q-12 -62 -70.5 -62t-58.5 57q0 9 6 39z" />
<glyph unicode="&#x445;" horiz-adv-x="870" d="M901 942q-108 -153 -350 -414q59 -109 115.5 -216t95.5 -228q12 -43 -7.5 -69.5t-57.5 -26.5t-50 37q-49 150 -186 397q-233 -248 -340 -399q-27 -35 -60 -35t-50 27.5t9 64.5q117 163 383 444q-53 100 -104 201.5t-84 212.5q-10 41 9.5 67.5t58.5 26.5t49 -37 q53 -168 160 -364q211 226 305 366q25 35 58.5 35t52 -26.5t-6.5 -63.5z" />
<glyph unicode="&#x446;" horiz-adv-x="1058" d="M870 119q23 0 41.5 -14.5t18.5 -30.5q0 -33 -4 -45l-45 -240q-12 -61 -70 -61q-23 0 -41 15t-18 36.5t6 50.5l33 170h-629q-25 0 -42.5 14.5t-17.5 36.5t4 43l168 871q4 29 23.5 45t43.5 16t42 -15.5t18 -31.5q0 -35 -4 -51l-157 -809h493l162 846q6 29 26.5 45t44.5 16 t41 -15.5t17 -32.5q0 -34 -6 -52l-156 -807h8z" />
<glyph unicode="&#x447;" horiz-adv-x="956" d="M694 406q-113 -33 -233.5 -33t-198.5 63.5t-78 184.5q0 35 13 106l45 236q11 63 67 63q25 0 42.5 -15.5t17.5 -32.5q0 -41 -7 -52l-38 -203q-9 -41 -9 -74q0 -90 54.5 -126t118.5 -36q101 0 229 29l86 447q4 31 23.5 47t43 16t42 -16.5t18.5 -34.5q0 -29 -4 -49 l-172 -883q-8 -61 -68 -61q-23 0 -40 15t-17 35.5t4 41.5z" />
<glyph unicode="&#x448;" horiz-adv-x="1615" d="M1415 61q-4 -29 -23.5 -45t-43.5 -16h-1188q-23 0 -41.5 15.5t-18.5 31.5q0 33 4 45l168 873q4 29 24.5 45t44.5 16t41 -15.5t17 -30.5v-26q0 -10 -4 -24l-155 -811h462l164 846q4 29 24.5 45t44.5 16t41 -15.5t17 -31.5v-23q0 -8 -4 -26l-155 -811h462l164 846 q4 29 24.5 45t44.5 16t41 -14.5t17 -31.5v-24q0 -6 -4 -26z" />
<glyph unicode="&#x449;" horiz-adv-x="1650" d="M1356 0h-1196q-23 0 -41.5 15.5t-18.5 31.5q0 33 4 45l168 873q6 29 25.5 45t43.5 16t41 -15.5t17 -30.5v-26q0 -10 -4 -24l-155 -811h462l164 846q6 29 25.5 45t43.5 16t41 -15.5t17 -31.5v-23q0 -8 -4 -26l-155 -811h462l164 846q6 29 25.5 45t43.5 16t41 -15.5 t17 -32.5q0 -34 -6 -52l-154 -807h7q25 0 43 -14.5t18 -30.5q0 -33 -4 -45l-47 -240q-12 -61 -70 -61q-23 0 -40 15t-17 33v30q0 10 4 24z" />
<glyph unicode="&#x44a;" horiz-adv-x="1130" d="M686 121q119 0 165 41t54 114l6 37q2 8 2 29q0 61 -46 97t-140 36h-211l-70 -354h240zM547 1018q25 0 43 -14.5t18 -33.5q0 -24 -4 -44l-65 -332h174q253 0 310 -142q17 -42 17 -71v-39q0 -10 -2 -27l-6 -49q-35 -266 -370 -266h-293q-25 0 -42.5 15.5t-17.5 34.5 q0 26 4 46l156 803h-309q-29 0 -44.5 16.5t-15.5 41t19.5 43t52.5 18.5h375z" />
<glyph unicode="&#x44b;" horiz-adv-x="1282" d="M242 121h235q119 0 166 41t57 114l5 39q2 10 2 27q0 61 -46.5 97t-140.5 36h-211zM100 61l174 902q12 63 68 63q23 0 41 -16.5t18 -44.5v-15l-69 -356h172q259 0 314 -143q16 -43 16 -72v-39q0 -10 -3 -21l-6 -51q-30 -268 -368 -268h-297q-23 0 -41.5 16t-18.5 45z M966.5 -1q-18.5 15 -18.5 34.5t2 25.5l174 906q12 63 70 63q23 0 41 -16.5t18 -35.5t-2 -26l-174 -905q-6 -29 -25.5 -45t-43 -16t-42 15z" />
<glyph unicode="&#x44c;" horiz-adv-x="925" d="M242 119h235q121 0 168 42t55 113l5 37q2 10 2 17v14q0 61 -45.5 97t-141.5 36h-211zM118.5 15q-18.5 15 -18.5 33.5t4 35.5l170 879q12 61 68 61q23 0 41 -15.5t18 -34.5q0 -22 -6 -52l-63 -328h174q252 0 310 -143q18 -43 18 -72v-39q0 -10 -3 -23l-6 -51 q-35 -266 -368 -266h-297q-23 0 -41.5 15z" />
<glyph unicode="&#x44d;" horiz-adv-x="878" d="M285 514q0 57 63 57h318q12 120 12 131q0 102 -45 155.5t-150 53.5q-98 0 -157 -41q-33 -16 -45.5 -29.5t-38 -13.5t-40 17.5t-14.5 35.5q0 47 88 95q89 51 195.5 51t165.5 -24.5t96 -67.5q72 -84 72 -234q0 -41 -10 -116l-23 -166q-61 -436 -461 -436q-157 0 -239 79 q-27 27 -27 54t18.5 45t44.5 18t37 -12q62 -68 187 -68t201.5 77t105.5 243l6 43h-305q-27 0 -41 15.5t-14 37.5z" />
<glyph unicode="&#x44e;" horiz-adv-x="1431" d="M674 326q0 -96 44 -159t156 -63q207 0 274 168q21 50 34 109l43 217q8 39 8 86t-11.5 87t-35.5 69q-51 65 -140.5 65t-142.5 -21.5t-90 -58.5q-68 -68 -90 -194l-39 -205q-10 -68 -10 -100zM406 967l-72 -373h252q11 48 21.5 98t42.5 114t84 114q112 106 308 106 q162 0 247 -103q73 -88 73 -229q0 -40 -10 -110l-43 -224q-36 -173 -131 -264q-115 -112 -312 -112q-164 0 -246 97q-71 82 -75 226q0 49 6 86t8 51.5t6 30.5h-254l-82 -430q-6 -29 -25.5 -45t-43 -16t-42 15t-18.5 34.5t2 25.5l174 906q6 29 26 45t43.5 16t42 -15.5 t18.5 -43.5z" />
<glyph unicode="&#x44f;" horiz-adv-x="933" d="M768 905h-201q-107 0 -171 -49q-46 -37 -62 -100l-8 -51q-4 -20 -4 -40t8 -43.5t28 -43.5q43 -43 136 -43h202zM481 426q-119 -150 -297 -403q-27 -39 -60 -39q-67 0 -67 49q0 23 15 45q117 171 280 368q-88 27 -121.5 89.5t-33.5 123.5v19q0 10 2 20l8 62 q14 111 104 186.5t267 75.5h270q23 0 40 -14.5t17 -32.5q0 -41 -4 -53l-170 -877q-4 -31 -23.5 -46t-45 -15t-41 16t-15.5 34q0 32 4 52l66 338z" />
<glyph unicode="&#x451;" horiz-adv-x="989" d="M983 1407q0 -41 -29.5 -70.5t-70.5 -29.5t-71 29.5t-30 70.5t30 70.5t71 29.5t70.5 -29.5t29.5 -70.5zM625 1407q0 -41 -29 -70.5t-71 -29.5t-70.5 29.5t-28.5 70.5t28.5 70.5t70.5 29.5t71 -29.5t29 -70.5zM914.5 827.5q17.5 -61.5 17.5 -111.5q0 -78 -8 -134l-11 -60 q-9 -53 -61 -53h-578l-10 -49q-4 -40 -4 -76q0 -106 56.5 -173t162.5 -67q105 0 221 46q21 8 41.5 8t35 -16.5t14.5 -49.5t-55 -54q-134 -50 -245.5 -50t-175 28.5t-103.5 77.5q-79 97 -79 254q0 53 8 101l27 161q41 290 266 386q78 34 173 34t154.5 -25.5t97.5 -70.5 t55.5 -106.5zM797 580q10 68 10 122q0 220 -193 220q-143 0 -217.5 -86t-99.5 -224l-6 -32h506z" />
<glyph unicode="&#x452;" horiz-adv-x="1007" d="M358 842q132 102 285.5 102t218 -78t64.5 -202q0 -68 -17 -156l-118 -612q-52 -256 -289 -256h-287q-25 0 -42 14t-17 41t19.5 45t49.5 18h275q133 0 162 144l120 628q4 27 9.5 56.5t5.5 58.5q0 82 -39 130t-128 48q-160 0 -302 -135l-123 -645q-12 -61 -70 -61 q-23 0 -41 14t-18 35.5t6 52.5l207 1069h-66q-57 0 -57 51q0 29 19.5 46.5t50.5 17.5h73l29 147q6 29 25.5 45.5t43.5 16.5t42 -14.5t18 -30.5q0 -21 -4 -41l-23 -123h193q59 0 59 -51q0 -29 -19.5 -46.5t-49.5 -17.5h-207z" />
<glyph unicode="&#x453;" horiz-adv-x="845" d="M711 1253q-23 -32 -52 -32t-44 16t-15 36.5t12 37.5l215 307q20 27 49.5 27t49.5 -18.5t20 -36.5q0 -22 -12 -46zM393 901l-166 -852q-4 -29 -23.5 -45t-43 -16t-42 15t-18.5 31v28q0 10 4 16l170 883q4 29 23.5 44t44.5 15h520q23 0 39.5 -13.5t16.5 -42t-22 -46 t-50 -17.5h-453z" />
<glyph unicode="&#x454;" horiz-adv-x="923" d="M590 578q55 0 55 -52q0 -25 -19.5 -42t-47.5 -17h-306l-10 -64q-4 -32 -4 -65q0 -111 61.5 -174.5t167 -63.5t167 18.5t97 38t55.5 19.5t35 -14.5t15 -46t-37 -49.5q-145 -84 -332 -84q-178 0 -271 97q-87 91 -87 251q0 41 6 88l27 184q41 302 248 392q77 34 178 34 q183 0 313 -78q29 -16 29 -47t-18.5 -48t-33.5 -17q-24 0 -54 20q-87 55 -229 55t-211 -81.5t-91 -217.5l-6 -36h303z" />
<glyph unicode="&#x455;" horiz-adv-x="847" d="M805 938q0 -57 -60 -57q-16 0 -32.5 7t-61.5 17t-98 10q-121 0 -193.5 -48t-72.5 -117q0 -98 143 -154q198 -77 243 -118q89 -78 89 -189q0 -148 -126 -227q-117 -74 -300 -74q-177 0 -260 50q-31 19 -31 49t17.5 46.5t37.5 16.5t38 -10.5t57 -19.5q78 -18 139 -18 q150 0 225.5 52.5t75.5 130.5q0 75 -76 121q-35 22 -79 39.5t-88 35.5t-86 40t-74 53q-70 68 -70 157t32.5 142t87.5 89q111 70 271 70q81 0 147 -16t85.5 -34.5t19.5 -43.5z" />
<glyph unicode="&#x456;" horiz-adv-x="430" d="M500 1374q0 -35 -23.5 -57.5t-58.5 -22.5t-57.5 22.5t-22.5 57.5t22.5 58.5t57.5 23.5t58.5 -23.5t23.5 -58.5zM406 973l-177 -924q-6 -29 -25.5 -45t-43 -16t-42 15t-18.5 34.5t2 25.5l174 908q6 29 26 45t43.5 16t42 -15t18.5 -44z" />
<glyph unicode="&#x457;" horiz-adv-x="428" d="M385 1016q18 -14 18 -34v-28q0 -10 -4 -24l-172 -881q-4 -29 -23.5 -45t-43 -16t-42 15t-18.5 36.5t6 50.5l170 881q4 29 23.5 44t43.5 15t42 -14zM692 1407q0 -41 -29.5 -70.5t-70.5 -29.5t-70.5 29.5t-29.5 70.5t29.5 70.5t70.5 29.5t70.5 -29.5t29.5 -70.5zM334 1407 q0 -41 -29 -70.5t-69 -29.5q-41 0 -71 29.5t-30 70.5t30 70.5t71 29.5t69.5 -29.5t28.5 -70.5z" />
<glyph unicode="&#x458;" horiz-adv-x="430" d="M500 1374q0 -35 -23.5 -57.5t-58.5 -22.5t-57.5 22.5t-22.5 57.5t22.5 58.5t57.5 23.5t58.5 -23.5t23.5 -58.5zM406 973l-191 -998q-37 -190 -129 -273t-246 -83q-23 0 -47 15.5t-19 46.5q8 52 72 57q98 2 155.5 57t86.5 201l188 975q6 29 26 45t43.5 16t42 -15t18.5 -44 z" />
<glyph unicode="&#x459;" horiz-adv-x="1548" d="M-27 -3q-20 15 -20 47t22.5 47t49.5 15h24q107 0 147 164q11 43 19 82l117 606q6 29 25.5 45.5t43.5 16.5h564q23 0 40 -14.5t17 -37.5t-4 -44l-64 -328h172q255 0 314 -145q18 -43 18 -72q0 -40 -4 -62l-6 -51q-16 -125 -102 -195.5t-267 -70.5h-295q-23 0 -41 15.5 t-18 34.5q0 30 4 50l156 799h-434l-107 -555q-28 -156 -74.5 -227.5t-99.5 -103t-129 -31.5h-25q-23 0 -43 15zM1102 119q121 0 167 44t54 116l4 30q2 8 2 17v16q0 61 -45 97t-141 36h-211l-68 -356h238z" />
<glyph unicode="&#x45a;" horiz-adv-x="1511" d="M1065 119q119 0 165 41t56 112l6 39q2 8 2 15v14q0 63 -46 99t-142 36h-211l-68 -356h238zM118.5 -4q-18.5 14 -18.5 34.5t2 26.5l174 904q12 63 68 63q23 0 41 -15.5t18 -37.5t-6 -47l-63 -332h454l72 369q6 31 25.5 47t43.5 16t41 -14.5t17 -37.5t-4 -40l-65 -338h174 q252 0 312 -144q17 -42 17 -72q0 -39 -4 -61l-4 -49q-12 -123 -99 -195.5t-272 -72.5h-294q-25 0 -42.5 14.5t-17.5 35.5t4 42l74 381h-455l-84 -432q-4 -29 -23.5 -44t-43 -15t-42 14z" />
<glyph unicode="&#x45b;" horiz-adv-x="1021" d="M383 842q138 102 288 102t215.5 -79t65.5 -203q0 -53 -16 -146l-94 -475q-4 -29 -23.5 -44t-43.5 -15t-41 14t-17 32q0 24 4 46l84 448q16 77 16 140t-38 112t-128 49q-162 0 -301 -135l-125 -647q-4 -29 -24.5 -44t-44 -15t-42 15t-18.5 31q0 18 6 48l207 1075h-65 q-29 0 -43.5 15.5t-14.5 41t19.5 43t50.5 17.5h76l29 147q4 29 23.5 45.5t43 16.5t42 -16.5t16.5 -49.5t-11.5 -73t-13.5 -70h194q28 0 43 -17q15 -15 15 -39.5t-19.5 -42.5t-50.5 -18h-205z" />
<glyph unicode="&#x45c;" horiz-adv-x="903" d="M922 1028q53 0 53 -53q0 -30 -25 -53l-407 -416q134 -207 248 -418q10 -20 10 -46t-17.5 -42t-44.5 -16q-41 0 -63 41q-117 224 -242 421h-127l-78 -401q-4 -29 -23.5 -45t-45.5 -16q-27 0 -42.5 15t-15.5 33q0 34 4 54l170 879q6 29 26 45t45.5 16t40.5 -15.5t15 -35.5 t-4 -41l-69 -369h119l413 434q25 29 60 29zM692 1253q-23 -32 -51.5 -32t-43.5 16t-15 36.5t12 37.5l217 307q16 27 47 27t51.5 -18.5t20.5 -41t-15 -41.5z" />
<glyph unicode="&#x45e;" horiz-adv-x="925" d="M940 1448q-126 -195 -303 -195t-275 195q-6 14 -6 34t19.5 36t46.5 16t41 -31q70 -137 182 -137t203 137q20 31 46 31t42 -15.5t16 -36t-12 -34.5zM543 139q-150 -277 -273 -389q-137 -125 -307 -125q-33 0 -50 17.5t-17 46.5t20.5 46t58 18t80.5 12.5t86 38.5 q91 59 178 188q-108 546 -157 940q-2 10 -2 18v13q0 29 17.5 49t45 20t43 -13t19.5 -48q42 -330 129 -815l434 831q23 45 59 45q64 0 64 -55q0 -27 -17 -59z" />
<glyph unicode="&#x45f;" horiz-adv-x="1011" d="M811 61q-4 -29 -23.5 -45t-44.5 -16h-233l-39 -211q-4 -29 -24.5 -45t-44.5 -16q-58 0 -58 57q0 16 4 33l35 182h-223q-23 0 -40.5 15.5t-17.5 34.5q0 30 4 50l166 869q13 61 68 61q25 0 42 -15.5t17 -35.5t-4 -41l-155 -817h452l164 848q6 29 25.5 45t43.5 16t41 -14.5 t17 -37.5t-4 -40z" />
<glyph unicode="&#x490;" horiz-adv-x="1021" d="M123 -18q-64 0 -64 61q0 21 4 33l261 1351q6 31 26.5 48.5t46.5 17.5h602l258 365q18 29 48.5 28.5t50.5 -19t20 -42.5q0 -25 -16 -41l-221 -293q47 -8 47 -57q0 -29 -21.5 -49.5t-54.5 -20.5h-661l-254 -1317q-6 -33 -27 -49t-45 -16z" />
<glyph unicode="&#x491;" horiz-adv-x="860" d="M393 901l-166 -852q-4 -29 -23.5 -45t-43 -16t-42 15t-18.5 31v26q0 10 2 16l172 885q4 29 24.5 44t43.5 15h395l258 366q20 29 50.5 29t49.5 -18.5t19 -42t-16 -43.5l-224 -291q43 -10 43.5 -47t-21.5 -54.5t-50 -17.5h-453z" />
<glyph unicode="&#x2000;" horiz-adv-x="1025" />
<glyph unicode="&#x2001;" horiz-adv-x="2050" />
<glyph unicode="&#x2002;" horiz-adv-x="1025" />
<glyph unicode="&#x2003;" horiz-adv-x="2050" />
<glyph unicode="&#x2004;" horiz-adv-x="683" />
<glyph unicode="&#x2005;" horiz-adv-x="512" />
<glyph unicode="&#x2006;" horiz-adv-x="341" />
<glyph unicode="&#x2007;" horiz-adv-x="341" />
<glyph unicode="&#x2008;" horiz-adv-x="256" />
<glyph unicode="&#x2009;" horiz-adv-x="410" />
<glyph unicode="&#x200a;" horiz-adv-x="113" />
<glyph unicode="&#x2010;" horiz-adv-x="964" d="M803 664q29 0 46 -19t17 -43.5t-20.5 -43.5t-54.5 -19h-521q-29 0 -47 18q-16 16 -16 42t20.5 45.5t55.5 19.5h520z" />
<glyph unicode="&#x2011;" horiz-adv-x="964" d="M803 664q29 0 46 -19t17 -43.5t-20.5 -43.5t-54.5 -19h-521q-29 0 -47 18q-16 16 -16 42t20.5 45.5t55.5 19.5h520z" />
<glyph unicode="&#x2012;" horiz-adv-x="964" d="M803 664q29 0 46 -19t17 -43.5t-20.5 -43.5t-54.5 -19h-521q-29 0 -47 18q-16 16 -16 42t20.5 45.5t55.5 19.5h520z" />
<glyph unicode="&#x2013;" horiz-adv-x="1026" d="M1042 616q64 0 64 -55q0 -29 -20.5 -48t-53.5 -19h-889q-31 0 -47 16q-14 14 -14 41t20.5 46t53.5 19h886z" />
<glyph unicode="&#x2014;" horiz-adv-x="2050" d="M2066 616q64 0 64 -55q0 -29 -20.5 -48t-53.5 -19h-1913q-31 0 -47 16q-14 14 -14 41t20.5 46t53.5 19h1910z" />
<glyph unicode="&#x2018;" horiz-adv-x="374" d="M482 1504q10 -11 9 -27t-12.5 -24.5t-24.5 -20.5q-40 -33 -48 -76q33 -10 52 -39t15 -67t-35.5 -63.5t-76 -21.5t-69 40t-20.5 89q11 96 84 166q85 84 126 44z" />
<glyph unicode="&#x2019;" horiz-adv-x="374" d="M480.5 1474q23.5 -35 19.5 -89t-29 -96t-55 -69q-63 -60 -101 -55q-14 0 -24 11.5t-8 25.5q0 14 11 23.5t24 19.5q37 27 51 78q-33 12 -53.5 40t-16.5 66.5t37 63.5t77 20.5t67.5 -39.5z" />
<glyph unicode="&#x201c;" horiz-adv-x="673" d="M791 1477q-2 -16 -13.5 -24.5t-25.5 -20.5q-37 -31 -45 -76q31 -10 50 -39t16 -67t-35.5 -63.5t-75.5 -21.5t-69 40t-22 89q11 98 85 166q87 83 126 44q11 -11 9 -27zM482 1504q10 -11 9 -27t-12.5 -24.5t-24.5 -20.5q-40 -33 -48 -76q33 -10 52 -39t15 -67t-35.5 -63.5 t-76 -21.5t-69 40t-20.5 89q11 96 84 166q85 84 126 44z" />
<glyph unicode="&#x201d;" horiz-adv-x="673" d="M780.5 1474q24.5 -35 19.5 -89t-28.5 -96t-53.5 -69q-65 -60 -104 -55q-14 0 -23 11.5t-9 25.5q3 20 27 36q44 31 59 85q-33 12 -52.5 40t-15.5 66.5t36 63.5t76 20.5t68.5 -39.5zM480.5 1474q23.5 -35 19.5 -89t-29 -96t-55 -69q-63 -60 -101 -55q-14 0 -24 11.5 t-8 25.5q0 14 11 23.5t24 19.5q37 27 51 78q-33 12 -53.5 40t-16.5 66.5t37 63.5t77 20.5t67.5 -39.5z" />
<glyph unicode="&#x201e;" horiz-adv-x="675" d="M541 45q-7 -91 -83 -166q-86 -84 -128 -43q-11 10 -6 27q0 14 11 23.5t25 19.5q36 27 50 78q-35 10 -53.5 38.5t-15.5 66.5t35 63.5t76 21.5t68.5 -40t20.5 -89zM221.5 134q24.5 -36 19.5 -89t-29 -95t-53.5 -71t-58.5 -43q-47 -22 -70 0q-10 10 -7.5 25.5t12.5 25 t25 19.5q34 24 49 78q-35 10 -53.5 38.5t-14.5 66.5t36 63.5t76 21.5t68.5 -40z" />
<glyph unicode="&#x2022;" horiz-adv-x="1021" d="M887 684q0 -145 -103 -248q-102 -102 -247 -102t-249 102t-104 248q0 145 104 249q103 103 249 103t247 -103q103 -105 103 -249z" />
<glyph unicode="&#x2026;" horiz-adv-x="1355" d="M1169 80q0 -41 -28.5 -70.5t-69.5 -29.5t-69.5 29.5t-28.5 70.5t28.5 69.5t69.5 28.5t69.5 -28.5t28.5 -69.5zM721 80q0 -41 -28.5 -70.5t-69.5 -29.5t-70 29.5t-29 70.5t29 69.5t70 28.5t69.5 -28.5t28.5 -69.5zM272 80q0 -41 -28.5 -70.5t-69.5 -29.5t-69.5 29.5 t-28.5 70.5t28.5 69.5t69.5 28.5t69.5 -28.5t28.5 -69.5z" />
<glyph unicode="&#x202f;" horiz-adv-x="410" />
<glyph unicode="&#x205f;" horiz-adv-x="512" />
<glyph unicode="&#x20ac;" d="M186 528q-55 0 -55 50q0 25 18.5 42t47.5 17h61l39 211h-53q-23 0 -35 12q-16 16 -16 39t17 40t46 17h61q56 273 196 409q150 146 411 146q123 0 219 -49q82 -42 82 -84q0 -27 -17.5 -46t-41 -19t-36.5 9q-98 65 -208.5 64.5t-189.5 -34t-132 -92.5q-96 -105 -141 -304 h411q27 0 39 -12q17 -17 17 -40.5t-18.5 -39.5t-47.5 -16h-426l-39 -211h414q28 0 40 -13q15 -18 15 -40.5t-18.5 -39t-46.5 -16.5h-420q-8 -58 -8 -102q0 -322 307 -322q112 0 237 68q35 23 53.5 36t43.5 13t42 -19.5t17 -52t-76 -77.5q-155 -92 -299.5 -92t-228.5 34.5 t-135 95.5q-96 116 -96 318q0 22 6 100h-56z" />
<glyph unicode="&#x2122;" horiz-adv-x="1368" d="M1229 786l84 443l-219 -342q-16 -27 -48 -27t-38 35l-90 340l-87 -453q-10 -41 -49 -41q-16 0 -30.5 10.5t-14.5 32.5v15l123 628q7 43 47.5 43t48.5 -38l113 -424l279 434q20 29 46 28q54 -1 54 -45q0 -6 -2 -10l-121 -631q-9 -43 -49 -43q-16 0 -31.5 11.5t-15.5 33.5z M324 1366q-45 0 -48 45q0 23 15.5 37t38.5 14h424q20 0 33.5 -13.5t13.5 -34t-15.5 -34.5t-37.5 -14h-168l-111 -582q-10 -43 -49 -43q-47 0 -47 45v15l108 565h-157z" />
<glyph unicode="&#xe000;" horiz-adv-x="1034" d="M0 1034h1034v-1034h-1034v1034z" />
</font>
</defs>
</svg>
